<svg xmlns="http://www.w3.org/2000/svg" width="65" height="142" fill="none" viewBox="0 0 65 142">
  <path fill="#5B77F6" d="M42.321 16.25c0-2.694-1.034-5.277-2.876-7.182-1.842-1.904-4.34-2.974-6.945-2.974-2.605 0-5.103 1.07-6.945 2.974-1.842 1.905-2.876 4.488-2.876 7.182s1.034 5.277 2.876 7.182c1.842 1.904 4.34 2.974 6.945 2.974 2.605 0 5.103-1.07 6.945-2.974 1.842-1.905 2.876-4.488 2.876-7.182Zm-25.535 0c0-4.31 1.655-8.443 4.602-11.49C24.335 1.712 28.332 0 32.5 0s8.165 1.712 11.112 4.76c2.947 3.047 4.602 7.18 4.602 11.49 0 4.31-1.655 8.443-4.602 11.49-2.947 3.048-6.944 4.76-11.112 4.76s-8.165-1.712-11.112-4.76c-2.947-3.047-4.602-7.18-4.602-11.49Zm-5.734 42.656h42.895c-1.092-8.036-7.77-14.218-15.837-14.218H26.89c-8.066 0-14.745 6.182-15.838 14.218ZM5 61.23c0-12.505 9.797-22.636 21.89-22.636h11.22C50.204 38.594 60 48.724 60 61.23c0 2.082-1.633 3.77-3.646 3.77H8.646C6.633 65 5 63.312 5 61.23Z"/>
  <path fill="#000" d="M32.5 135.906a26.406 26.406 0 1 1 0-52.813 26.406 26.406 0 0 1 0 52.813ZM32.5 77a32.5 32.5 0 1 0 0 65 32.5 32.5 0 0 0 0-65Zm15.349 37.4a2.833 2.833 0 0 0 .901-2.069 2.834 2.834 0 0 0-2.831-2.831h-7.325V97.312a4.058 4.058 0 0 0-4.063-4.062H30.47a4.058 4.058 0 0 0-4.063 4.063V109.5h-7.325a2.834 2.834 0 0 0-2.831 2.831c0 .787.33 1.536.901 2.069l13.597 12.683a2.592 2.592 0 0 0 1.752.698c.648 0 1.282-.254 1.752-.698L47.849 114.4Z"/>
</svg>
