<svg xmlns="http://www.w3.org/2000/svg" width="38" height="41" fill="none" viewBox="0 0 38 41">
  <path fill="#000" d="M17.256 3.384a4.152 4.152 0 0 1 3.488 0l16.224 7.497c.631.29 1.032.92 1.032 1.618 0 .698-.4 1.329-1.032 1.618l-16.224 7.497a4.151 4.151 0 0 1-3.488 0L1.032 14.117A1.79 1.79 0 0 1 0 12.5c0-.69.4-1.329 1.032-1.618l16.224-7.497ZM33.02 18.556l3.948 1.826C37.6 20.672 38 21.302 38 22c0 .698-.4 1.329-1.032 1.618l-16.224 7.497a4.152 4.152 0 0 1-3.488 0L1.032 23.618A1.79 1.79 0 0 1 0 22c0-.69.4-1.329 1.032-1.618l3.948-1.826 11.281 5.21a6.539 6.539 0 0 0 5.478 0l11.28-5.21ZM21.739 33.267l11.28-5.21 3.95 1.826c.63.29 1.031.92 1.031 1.618 0 .698-.4 1.329-1.032 1.618l-16.224 7.497a4.152 4.152 0 0 1-3.488 0L1.032 33.119A1.79 1.79 0 0 1 0 31.501c0-.69.4-1.329 1.032-1.618l3.948-1.826 11.281 5.21a6.539 6.539 0 0 0 5.478 0Z"/>
  <path fill="#5B77F6" d="M7.58 5.074a1.23 1.23 0 0 1 .842 0l3.75 1.35c.496.179.828.653.828 1.187v4.778a1.26 1.26 0 0 1-.83 1.187l-3.75 1.35a1.237 1.237 0 0 1-.842 0l-3.75-1.35A1.26 1.26 0 0 1 3 12.39V7.611c0-.532.332-1.008.83-1.187l3.75-1.35ZM8 6.26 4.607 7.48 8 8.7l3.393-1.22L8 6.26Zm.625 7.254 3.125-1.124v-3.7L8.625 9.815v3.7ZM19.58.074a1.23 1.23 0 0 1 .842 0l3.75 1.35c.496.179.828.653.828 1.187v4.778a1.26 1.26 0 0 1-.83 1.187l-3.75 1.35a1.237 1.237 0 0 1-.842 0l-3.75-1.35A1.26 1.26 0 0 1 15 7.39V2.611c0-.532.332-1.008.83-1.187l3.75-1.35ZM20 1.26l-3.393 1.22L20 3.7l3.393-1.22L20 1.26Zm.625 7.254L23.75 7.39v-3.7l-3.125 1.124v3.7Zm9.955-3.44a1.23 1.23 0 0 1 .842 0l3.75 1.35c.496.179.828.653.828 1.187v4.778a1.26 1.26 0 0 1-.83 1.187l-3.75 1.35a1.237 1.237 0 0 1-.842 0l-3.75-1.35A1.26 1.26 0 0 1 26 12.39V7.611c0-.532.332-1.008.83-1.187l3.75-1.35ZM31 6.26l-3.393 1.22L31 8.7l3.393-1.22L31 6.26Zm.625 7.254 3.125-1.124v-3.7l-3.125 1.124v3.7Z"/>
</svg>
