<svg xmlns="http://www.w3.org/2000/svg" width="22" height="22" fill="none" viewBox="0 0 22 22">
  <circle cx="11" cy="11" r="11" fill="#fff"/>
  <path fill="#000" d="M10.423 13.727v-.068c.007-.723.083-1.3.227-1.727.144-.428.348-.775.614-1.04a4.94 4.94 0 0 1 .954-.733 2.97 2.97 0 0 0 .602-.483 2.15 2.15 0 0 0 .58-1.471c0-.372-.087-.694-.261-.966a1.754 1.754 0 0 0-.7-.631 2.119 2.119 0 0 0-.971-.222c-.31 0-.61.065-.898.194a1.737 1.737 0 0 0-.721.607c-.193.277-.305.639-.336 1.086H8.082c.03-.644.197-1.195.5-1.654a3.01 3.01 0 0 1 1.21-1.05 3.815 3.815 0 0 1 1.676-.364c.667 0 1.246.132 1.739.397.496.265.878.63 1.147 1.091.273.462.41.989.41 1.58 0 .416-.065.793-.194 1.13a2.786 2.786 0 0 1-.545.904c-.235.265-.52.5-.852.704a3.53 3.53 0 0 0-.802.66 2.09 2.09 0 0 0-.437.812c-.091.314-.14.706-.148 1.176v.068h-1.363Zm.727 3.364c-.28 0-.521-.1-.722-.301a.984.984 0 0 1-.3-.722c0-.28.1-.52.3-.721a.985.985 0 0 1 .722-.301c.28 0 .52.1.721.3a.986.986 0 0 1 .302.722.963.963 0 0 1-.143.511c-.09.156-.213.28-.369.375a.973.973 0 0 1-.511.137Z"/>
</svg>
