<svg xmlns="http://www.w3.org/2000/svg" width="950" height="40" fill="none" viewBox="0 0 950 40">
  <rect width="947" height="37" x="1.5" y="1.5" fill="#F3F5FD" stroke="#5B77F6" stroke-width="3" rx="5.5"/>
  <path fill="#5B77F6" d="M102.204 17h-1.761a3.666 3.666 0 0 0-1.484-2.301 3.978 3.978 0 0 0-1.215-.597 4.85 4.85 0 0 0-1.392-.199c-.88 0-1.679.223-2.394.668-.71.445-1.276 1.1-1.697 1.967-.417.867-.625 1.93-.625 3.19 0 1.259.208 2.322.625 3.188.421.867.987 1.522 1.698 1.968a4.437 4.437 0 0 0 2.393.667c.483 0 .947-.066 1.392-.199.445-.132.85-.329 1.215-.59.369-.264.681-.589.937-.972.26-.389.443-.834.547-1.335h1.761a5.863 5.863 0 0 1-.724 1.995 5.465 5.465 0 0 1-1.307 1.499 5.724 5.724 0 0 1-1.754.93 6.541 6.541 0 0 1-2.067.32c-1.24 0-2.344-.303-3.31-.91-.966-.605-1.726-1.467-2.28-2.585-.553-1.117-.83-2.443-.83-3.977 0-1.534.276-2.86.83-3.977.554-1.117 1.314-1.98 2.28-2.585.966-.606 2.07-.91 3.31-.91.734 0 1.423.107 2.067.32a5.642 5.642 0 0 1 1.754.938c.521.407.956.904 1.307 1.491a5.79 5.79 0 0 1 .724 1.996Zm2.846-4.546h2.103l4.943 12.074h.17l4.944-12.073h2.102V27h-1.648V15.949h-.142L112.977 27h-1.591l-4.546-11.051h-.142V27h-1.648V12.454Zm18.646 0 3.75 6.052h.113l3.75-6.052h2.074l-4.574 7.273L133.383 27h-2.074l-3.75-5.938h-.113L123.696 27h-2.074l4.687-7.273-4.687-7.273h2.074ZM141.3 27V12.454h4.915c1.141 0 2.074.207 2.798.618.73.408 1.269.96 1.62 1.655.35.696.525 1.473.525 2.33s-.175 1.636-.525 2.337c-.346.7-.881 1.259-1.605 1.676-.725.412-1.653.617-2.784.617h-3.523v-1.562h3.466c.781 0 1.408-.135 1.882-.405.473-.27.817-.634 1.03-1.094.218-.464.326-.987.326-1.57 0-.582-.108-1.102-.326-1.562a2.332 2.332 0 0 0-1.037-1.08c-.478-.264-1.113-.397-1.904-.397h-3.096V27H141.3Zm12.696 0V12.454h4.915c1.136 0 2.069.195 2.798.583.729.383 1.269.911 1.619 1.584.351.672.526 1.437.526 2.294s-.175 1.617-.526 2.28c-.35.663-.888 1.183-1.612 1.562-.725.374-1.65.561-2.777.561h-3.977v-1.59h3.92c.777 0 1.402-.114 1.875-.342.478-.227.824-.549 1.037-.965.218-.422.327-.924.327-1.506 0-.583-.109-1.092-.327-1.527-.218-.436-.566-.772-1.044-1.009-.478-.241-1.11-.362-1.896-.362h-3.097V27h-1.761Zm6.846-6.534 3.58 6.534h-2.046l-3.522-6.534h1.988Zm18.219-.739c0 1.534-.277 2.86-.831 3.977-.554 1.118-1.313 1.98-2.279 2.586-.966.606-2.069.909-3.31.909s-2.344-.303-3.31-.91c-.966-.605-1.726-1.467-2.28-2.585-.553-1.117-.83-2.443-.83-3.977 0-1.534.277-2.86.83-3.977.554-1.117 1.314-1.98 2.28-2.585.966-.606 2.069-.91 3.31-.91s2.344.304 3.31.91c.966.606 1.725 1.468 2.279 2.585.554 1.117.831 2.443.831 3.977Zm-1.704 0c0-1.26-.211-2.322-.632-3.189-.417-.866-.983-1.522-1.698-1.967a4.399 4.399 0 0 0-2.386-.668c-.881 0-1.679.223-2.393.668-.711.445-1.277 1.1-1.698 1.967-.417.867-.625 1.93-.625 3.19 0 1.259.208 2.322.625 3.188.421.867.987 1.522 1.698 1.968a4.432 4.432 0 0 0 2.393.667 4.4 4.4 0 0 0 2.386-.667c.715-.446 1.281-1.101 1.698-1.968.421-.866.632-1.93.632-3.189ZM278.326 27V12.454h4.915c1.141 0 2.073.207 2.798.618.729.408 1.269.96 1.619 1.655.351.696.526 1.473.526 2.33s-.175 1.636-.526 2.337c-.345.7-.88 1.259-1.605 1.676-.724.412-1.652.617-2.784.617h-3.523v-1.562h3.466c.781 0 1.409-.135 1.882-.405.474-.27.817-.634 1.03-1.094.218-.464.327-.987.327-1.57 0-.582-.109-1.102-.327-1.562a2.332 2.332 0 0 0-1.037-1.08c-.478-.264-1.113-.397-1.903-.397h-3.097V27h-1.761Zm16.782.227c-.984 0-1.848-.234-2.592-.703-.738-.469-1.316-1.124-1.733-1.967-.412-.843-.618-1.828-.618-2.955 0-1.136.206-2.128.618-2.976.417-.847.995-1.505 1.733-1.974.744-.469 1.608-.703 2.592-.703.985 0 1.847.234 2.586.703.743.469 1.321 1.127 1.733 1.974.416.848.625 1.84.625 2.976 0 1.127-.209 2.112-.625 2.955-.412.843-.99 1.498-1.733 1.967-.739.469-1.601.703-2.586.703Zm0-1.505c.749 0 1.364-.192 1.847-.576a3.392 3.392 0 0 0 1.073-1.512 5.792 5.792 0 0 0 .348-2.032 5.85 5.85 0 0 0-.348-2.038 3.437 3.437 0 0 0-1.073-1.527c-.483-.388-1.098-.582-1.847-.582-.748 0-1.363.194-1.846.582a3.437 3.437 0 0 0-1.073 1.527 5.851 5.851 0 0 0-.348 2.038c0 .73.116 1.407.348 2.032.232.625.59 1.129 1.073 1.512.483.384 1.098.576 1.846.576Zm11.934 1.505c-1.023 0-1.903-.241-2.642-.724-.739-.483-1.307-1.148-1.705-1.996-.397-.847-.596-1.816-.596-2.905 0-1.108.203-2.085.611-2.933.412-.852.985-1.518 1.718-1.996.739-.483 1.601-.724 2.586-.724.767 0 1.458.142 2.074.426a3.972 3.972 0 0 1 1.512 1.193c.393.511.637 1.108.732 1.79h-1.676c-.128-.497-.412-.938-.853-1.321-.435-.388-1.022-.582-1.761-.582-.653 0-1.226.17-1.719.51-.487.337-.869.813-1.143 1.428-.27.611-.405 1.329-.405 2.152 0 .843.133 1.577.398 2.202.27.625.648 1.11 1.136 1.456.493.346 1.07.519 1.733.519.436 0 .831-.076 1.186-.228a2.44 2.44 0 0 0 .902-.653c.246-.284.422-.625.526-1.023h1.676a3.887 3.887 0 0 1-.703 1.74 3.94 3.94 0 0 1-1.47 1.222c-.607.298-1.312.447-2.117.447Zm5.881-9.574v-1.562h8.863v1.562h-3.579V27h-1.676v-9.347h-3.608Zm15.316 9.574c-1.051 0-1.958-.232-2.72-.696a4.67 4.67 0 0 1-1.755-1.96c-.407-.843-.61-1.823-.61-2.94 0-1.118.203-2.103.61-2.955.412-.857.985-1.524 1.719-2.003.739-.483 1.601-.724 2.585-.724.569 0 1.13.095 1.684.284.554.19 1.058.497 1.512.923.455.422.817.98 1.087 1.676s.405 1.553.405 2.571v.71h-8.409v-1.448h6.704c0-.616-.123-1.165-.369-1.648a2.778 2.778 0 0 0-1.037-1.143c-.445-.28-.971-.42-1.577-.42-.667 0-1.245.166-1.733.498a3.274 3.274 0 0 0-1.115 1.278 3.76 3.76 0 0 0-.39 1.69v.966c0 .824.142 1.523.426 2.096a3.076 3.076 0 0 0 1.2 1.3c.512.293 1.106.44 1.783.44.44 0 .838-.062 1.193-.185.36-.128.67-.317.93-.568.261-.256.462-.573.604-.952l1.619.455a3.59 3.59 0 0 1-.859 1.448 4.19 4.19 0 0 1-1.491.966c-.592.228-1.258.341-1.996.341ZM334.34 27v-1.563h.397c.327 0 .599-.063.817-.191.218-.133.393-.362.526-.69.137-.33.241-.79.312-1.377.076-.592.13-1.345.164-2.258l.198-4.83h7.273V27h-1.676v-9.347h-4.006l-.17 3.893a17.516 17.516 0 0 1-.242 2.364c-.118.678-.3 1.246-.546 1.705-.242.46-.564.805-.966 1.037-.403.232-.907.348-1.513.348h-.568Zm17.336.227c-1.051 0-1.958-.232-2.72-.696a4.675 4.675 0 0 1-1.754-1.96c-.407-.843-.611-1.823-.611-2.94 0-1.118.204-2.103.611-2.955.412-.857.985-1.524 1.719-2.003.738-.483 1.6-.724 2.585-.724a5.17 5.17 0 0 1 1.683.284c.554.19 1.058.497 1.513.923.454.422.817.98 1.087 1.676.269.696.404 1.553.404 2.571v.71h-8.409v-1.448h6.705c0-.616-.123-1.165-.37-1.648a2.783 2.783 0 0 0-1.036-1.143c-.446-.28-.971-.42-1.577-.42-.668 0-1.245.166-1.733.498a3.266 3.266 0 0 0-1.115 1.278 3.748 3.748 0 0 0-.391 1.69v.966c0 .824.142 1.523.426 2.096a3.072 3.072 0 0 0 1.201 1.3c.511.293 1.105.44 1.782.44.441 0 .838-.062 1.193-.185.36-.128.67-.317.931-.568.26-.256.462-.573.604-.952l1.619.455a3.602 3.602 0 0 1-.859 1.448c-.403.412-.9.734-1.492.966-.592.228-1.257.341-1.996.341Zm7.067-.227V16.09h1.676v4.745h1.108l3.921-4.744h2.159l-4.404 5.256L367.664 27h-2.16l-3.579-4.602h-1.506V27h-1.676Zm14.725.227c-.985 0-1.849-.234-2.592-.703-.739-.469-1.317-1.124-1.733-1.967-.412-.843-.618-1.828-.618-2.955 0-1.136.206-2.128.618-2.976.416-.847.994-1.505 1.733-1.974.743-.469 1.607-.703 2.592-.703.985 0 1.846.234 2.585.703.743.469 1.321 1.127 1.733 1.974.417.848.625 1.84.625 2.976 0 1.127-.208 2.112-.625 2.955-.412.843-.99 1.498-1.733 1.967-.739.469-1.6.703-2.585.703Zm0-1.505c.748 0 1.363-.192 1.846-.576a3.392 3.392 0 0 0 1.073-1.512 5.792 5.792 0 0 0 .348-2.032 5.85 5.85 0 0 0-.348-2.038 3.437 3.437 0 0 0-1.073-1.527c-.483-.388-1.098-.582-1.846-.582s-1.364.194-1.847.582c-.483.388-.84.897-1.072 1.527a5.851 5.851 0 0 0-.348 2.038c0 .73.116 1.407.348 2.032.232.625.589 1.129 1.072 1.512.483.384 1.099.576 1.847.576Zm13.468-.995 3.806-8.636h1.591L387.617 27h-1.363l-4.631-10.91h1.563l3.75 8.637Zm-4.29-8.636V27h-1.676V16.09h1.676ZM391.225 27V16.09h1.676V27h-1.676Zm175.554-14.546V27h-1.762V14.017h-7.329V27h-1.762V12.454h10.853Zm7.757 14.773c-.985 0-1.849-.234-2.592-.703-.739-.469-1.316-1.124-1.733-1.967-.412-.843-.618-1.828-.618-2.955 0-1.136.206-2.128.618-2.976.417-.847.994-1.505 1.733-1.974.743-.469 1.607-.703 2.592-.703.985 0 1.847.234 2.585.703.744.469 1.321 1.127 1.733 1.974.417.848.625 1.84.625 2.976 0 1.127-.208 2.112-.625 2.955-.412.843-.989 1.498-1.733 1.967-.738.469-1.6.703-2.585.703Zm0-1.505c.748 0 1.364-.192 1.847-.576.483-.383.84-.887 1.072-1.512a5.792 5.792 0 0 0 .348-2.032 5.85 5.85 0 0 0-.348-2.038c-.232-.63-.589-1.139-1.072-1.527-.483-.388-1.099-.582-1.847-.582s-1.363.194-1.846.582a3.437 3.437 0 0 0-1.073 1.527 5.851 5.851 0 0 0-.348 2.038c0 .73.116 1.407.348 2.032.232.625.59 1.129 1.073 1.512.483.384 1.098.576 1.846.576Zm15.911-9.631V27h-1.676V16.09h1.676Zm-.653 5.199v1.562a15.86 15.86 0 0 1-1.13.377 9.778 9.778 0 0 1-1.179.248 9.956 9.956 0 0 1-1.356.085c-1.236 0-2.228-.333-2.976-1-.743-.669-1.115-1.67-1.115-3.005v-3.494h1.676v3.494c0 .559.107 1.018.32 1.378.213.36.502.627.866.802.365.175.774.263 1.229.263.71 0 1.352-.064 1.925-.192a14.578 14.578 0 0 0 1.74-.518Zm2.244-3.637v-1.562h8.864v1.562h-3.58V27h-1.676v-9.347h-3.608Zm13.952 9.603c-.691 0-1.318-.13-1.882-.39a3.23 3.23 0 0 1-1.342-1.144c-.331-.502-.497-1.108-.497-1.819 0-.625.123-1.131.369-1.52.246-.392.575-.7.987-.923a5.195 5.195 0 0 1 1.364-.497 16.57 16.57 0 0 1 1.513-.27c.663-.085 1.2-.149 1.612-.192.417-.047.72-.125.909-.234.194-.109.291-.298.291-.568v-.057c0-.7-.191-1.245-.575-1.633-.379-.389-.954-.583-1.726-.583-.8 0-1.427.175-1.882.526-.455.35-.774.724-.959 1.122l-1.591-.568c.284-.663.663-1.18 1.137-1.549a4.258 4.258 0 0 1 1.562-.78 6.487 6.487 0 0 1 1.676-.228c.351 0 .753.043 1.208.128.459.08.902.248 1.328.504.431.256.788.642 1.072 1.158.284.516.426 1.207.426 2.073V27h-1.676v-1.477h-.085c-.114.236-.303.49-.568.76-.265.27-.618.5-1.058.689-.441.189-.978.284-1.613.284Zm.256-1.506c.663 0 1.222-.13 1.676-.39.46-.261.805-.597 1.037-1.01.237-.411.355-.844.355-1.299v-1.534c-.071.085-.227.163-.468.234a7.953 7.953 0 0 1-.824.178c-.308.047-.609.09-.902.128a38.62 38.62 0 0 0-.703.085c-.436.057-.843.15-1.222.277-.374.123-.677.31-.909.561-.227.246-.341.582-.341 1.009 0 .582.215 1.022.646 1.32.436.294.987.441 1.655.441ZM619.902 27V12.454h4.915c1.141 0 2.074.207 2.798.618.729.408 1.269.96 1.619 1.655.351.696.526 1.473.526 2.33s-.175 1.636-.526 2.337c-.345.7-.88 1.259-1.605 1.676-.724.412-1.652.617-2.784.617h-3.523v-1.562h3.466c.782 0 1.409-.135 1.882-.405.474-.27.817-.634 1.03-1.094.218-.464.327-.987.327-1.57 0-.582-.109-1.102-.327-1.562a2.327 2.327 0 0 0-1.037-1.08c-.478-.264-1.112-.397-1.903-.397h-3.097V27h-1.761Zm16.783.227c-.985 0-1.849-.234-2.593-.703-.738-.469-1.316-1.124-1.733-1.967-.412-.843-.618-1.828-.618-2.955 0-1.136.206-2.128.618-2.976.417-.847.995-1.505 1.733-1.974.744-.469 1.608-.703 2.593-.703.985 0 1.846.234 2.585.703.743.469 1.321 1.127 1.733 1.974.417.848.625 1.84.625 2.976 0 1.127-.208 2.112-.625 2.955-.412.843-.99 1.498-1.733 1.967-.739.469-1.6.703-2.585.703Zm0-1.505c.748 0 1.363-.192 1.846-.576a3.392 3.392 0 0 0 1.073-1.512 5.792 5.792 0 0 0 .348-2.032 5.85 5.85 0 0 0-.348-2.038 3.437 3.437 0 0 0-1.073-1.527c-.483-.388-1.098-.582-1.846-.582s-1.364.194-1.847.582c-.483.388-.84.897-1.072 1.527a5.851 5.851 0 0 0-.348 2.038c0 .73.116 1.407.348 2.032.232.625.589 1.129 1.072 1.512.483.384 1.099.576 1.847.576Zm11.933 1.505c-1.022 0-1.903-.241-2.642-.724-.738-.483-1.307-1.148-1.704-1.996-.398-.847-.597-1.816-.597-2.905 0-1.108.204-2.085.611-2.933.412-.852.985-1.518 1.719-1.996.738-.483 1.6-.724 2.585-.724.767 0 1.458.142 2.074.426a3.972 3.972 0 0 1 1.512 1.193c.393.511.637 1.108.732 1.79h-1.676c-.128-.497-.412-.938-.852-1.321-.436-.388-1.023-.582-1.762-.582-.653 0-1.226.17-1.718.51-.488.337-.869.813-1.144 1.428-.27.611-.405 1.329-.405 2.152 0 .843.133 1.577.398 2.202.27.625.649 1.11 1.136 1.456.493.346 1.07.519 1.733.519.436 0 .831-.076 1.186-.228a2.44 2.44 0 0 0 .902-.653c.247-.284.422-.625.526-1.023h1.676a3.887 3.887 0 0 1-.703 1.74 3.924 3.924 0 0 1-1.47 1.222c-.606.298-1.312.447-2.117.447Zm11.172 0c-1.023 0-1.903-.241-2.642-.724-.739-.483-1.307-1.148-1.704-1.996-.398-.847-.597-1.816-.597-2.905 0-1.108.204-2.085.611-2.933.412-.852.985-1.518 1.718-1.996.739-.483 1.601-.724 2.586-.724.767 0 1.458.142 2.074.426a3.972 3.972 0 0 1 1.512 1.193c.393.511.637 1.108.732 1.79h-1.676c-.128-.497-.412-.938-.853-1.321-.435-.388-1.022-.582-1.761-.582-.653 0-1.226.17-1.719.51-.487.337-.868.813-1.143 1.428-.27.611-.405 1.329-.405 2.152 0 .843.133 1.577.398 2.202.27.625.648 1.11 1.136 1.456.493.346 1.07.519 1.733.519.436 0 .831-.076 1.186-.228a2.44 2.44 0 0 0 .902-.653c.246-.284.422-.625.526-1.023h1.676a3.887 3.887 0 0 1-.703 1.74 3.94 3.94 0 0 1-1.47 1.222c-.606.298-1.312.447-2.117.447Zm8.416-2.699 5.256-8.437h1.932V27h-1.676v-8.438L668.49 27h-1.96V16.09h1.676v8.438Zm11.934 0 5.256-8.437h1.931V27h-1.676v-8.438L680.424 27h-1.96V16.09h1.676v8.438ZM472.582 27l-5-6.676h-1.79V27h-1.761V12.454h1.761v6.307h.767l5.824-6.306h2.102l-5.88 6.392L474.684 27h-2.102Zm8.233-8.054v1.563h-6.363v-1.563h6.363Zm7.602 8.253c-.938 0-1.774-.161-2.508-.483-.729-.322-1.309-.77-1.74-1.342-.426-.578-.658-1.248-.696-2.01h1.79c.038.468.199.873.483 1.214.284.336.656.597 1.115.781a4.05 4.05 0 0 0 1.527.277c.625 0 1.179-.108 1.662-.326.483-.218.862-.521 1.136-.91.275-.388.412-.837.412-1.349 0-.535-.132-1.006-.397-1.413-.266-.412-.654-.734-1.165-.966-.511-.232-1.136-.348-1.875-.348h-1.165V18.76h1.165c.578 0 1.084-.104 1.52-.312.44-.209.783-.502 1.03-.88.251-.38.376-.825.376-1.336 0-.492-.109-.921-.327-1.286a2.234 2.234 0 0 0-.923-.852c-.393-.203-.857-.305-1.392-.305a3.66 3.66 0 0 0-1.42.277 2.64 2.64 0 0 0-1.08.788c-.279.341-.431.753-.455 1.236h-1.704c.028-.762.258-1.43.689-2.003a4.337 4.337 0 0 1 1.69-1.35 5.463 5.463 0 0 1 2.308-.482c.9 0 1.672.182 2.316.547a3.85 3.85 0 0 1 1.484 1.427c.346.592.519 1.231.519 1.918 0 .819-.216 1.517-.647 2.095-.426.578-1.006.978-1.74 1.2v.114c.919.151 1.636.542 2.152 1.172.516.625.774 1.399.774 2.322 0 .79-.215 1.501-.646 2.13-.426.626-1.009 1.118-1.747 1.478-.739.36-1.579.54-2.521.54Zm284.058-14.745 4.318 12.245h.171l4.318-12.245h1.847L777.788 27h-1.819l-5.34-14.546h1.846Zm16.25 14.773c-1.051 0-1.958-.232-2.72-.696-.758-.468-1.342-1.122-1.754-1.96-.407-.843-.611-1.823-.611-2.94 0-1.118.204-2.103.611-2.955.412-.857.985-1.524 1.718-2.003.739-.483 1.601-.724 2.586-.724a5.17 5.17 0 0 1 1.683.284c.554.19 1.058.497 1.513.923.454.422.816.98 1.086 1.676.27.696.405 1.553.405 2.571v.71h-8.409v-1.448h6.705c0-.616-.123-1.165-.37-1.648a2.778 2.778 0 0 0-1.037-1.143c-.445-.28-.97-.42-1.576-.42-.668 0-1.246.166-1.733.498a3.266 3.266 0 0 0-1.115 1.278 3.748 3.748 0 0 0-.391 1.69v.966c0 .824.142 1.523.426 2.096a3.076 3.076 0 0 0 1.2 1.3c.512.293 1.106.44 1.783.44.44 0 .838-.062 1.193-.185.36-.128.67-.317.931-.568.26-.256.461-.573.603-.952l1.62.455a3.593 3.593 0 0 1-.86 1.448 4.182 4.182 0 0 1-1.491.966c-.592.228-1.257.341-1.996.341Zm7.067-.227V16.09h1.619v1.649h.114c.199-.54.559-.978 1.079-1.314a3.178 3.178 0 0 1 1.762-.505 17.805 17.805 0 0 1 .88.028v1.705a4.921 4.921 0 0 0-.39-.063 3.843 3.843 0 0 0-.632-.05c-.531 0-1.004.111-1.421.334a2.52 2.52 0 0 0-.98.909 2.448 2.448 0 0 0-.355 1.314V27h-1.676Zm7.413.114a1.23 1.23 0 0 1-.902-.377 1.23 1.23 0 0 1-.377-.902c0-.35.126-.65.377-.902.251-.25.552-.376.902-.376s.651.125.902.376.376.552.376.902c0 .232-.059.445-.177.64-.114.194-.268.35-.462.468-.189.114-.402.17-.639.17ZM824.338 27v-1.278l4.801-5.256a33.859 33.859 0 0 0 1.392-1.605c.364-.46.634-.89.81-1.293.179-.407.269-.833.269-1.278 0-.512-.123-.954-.369-1.328a2.395 2.395 0 0 0-.994-.867 3.226 3.226 0 0 0-1.421-.305c-.558 0-1.046.116-1.463.348a2.4 2.4 0 0 0-.959.959c-.222.412-.333.895-.333 1.449h-1.676c0-.853.196-1.6.589-2.245a4.096 4.096 0 0 1 1.605-1.505c.682-.36 1.447-.54 2.294-.54.852 0 1.608.18 2.266.54.658.36 1.174.845 1.548 1.455.374.611.561 1.29.561 2.039 0 .535-.097 1.058-.291 1.57-.189.506-.521 1.072-.994 1.697-.469.62-1.12 1.378-1.953 2.273l-3.268 3.494v.113h6.762V27h-9.176Zm13.359.114a1.23 1.23 0 0 1-.902-.377 1.23 1.23 0 0 1-.376-.902c0-.35.125-.65.376-.902.251-.25.552-.376.902-.376s.651.125.902.376.376.552.376.902c0 .232-.059.445-.177.64-.114.194-.268.35-.462.468-.189.114-.402.17-.639.17Zm4.419-.114 6.506-12.87v-.113h-7.5v-1.563h9.318v1.648L843.963 27h-1.847Zm9.722.114a1.23 1.23 0 0 1-.902-.377 1.23 1.23 0 0 1-.377-.902c0-.35.126-.65.377-.902a1.23 1.23 0 0 1 .902-.376c.35 0 .651.125.902.376s.376.552.376.902c0 .232-.059.445-.177.64-.114.194-.268.35-.462.468-.189.114-.403.17-.639.17Zm7.633-14.66V27h-1.761V14.301h-.086l-3.551 2.358v-1.79l3.637-2.415h1.761Zm9.098 14.745c-.938 0-1.773-.161-2.507-.483-.729-.322-1.309-.77-1.74-1.342-.426-.578-.658-1.248-.696-2.01h1.789c.038.468.199.873.483 1.214.285.336.656.597 1.115.781.46.185.969.277 1.527.277.625 0 1.179-.108 1.662-.326a2.73 2.73 0 0 0 1.137-.91c.274-.388.412-.837.412-1.349 0-.535-.133-1.006-.398-1.413-.265-.412-.653-.734-1.165-.966-.511-.232-1.136-.348-1.875-.348h-1.165V18.76h1.165c.578 0 1.084-.104 1.52-.312a2.45 2.45 0 0 0 1.03-.88c.251-.38.376-.825.376-1.336 0-.492-.109-.921-.326-1.286a2.236 2.236 0 0 0-.924-.852c-.393-.203-.857-.305-1.392-.305a3.66 3.66 0 0 0-1.42.277c-.44.18-.8.442-1.08.788a2.05 2.05 0 0 0-.454 1.236h-1.705c.029-.762.258-1.43.689-2.003a4.337 4.337 0 0 1 1.69-1.35 5.468 5.468 0 0 1 2.309-.482c.899 0 1.671.182 2.315.547.644.36 1.139.835 1.484 1.427.346.592.519 1.231.519 1.918 0 .819-.216 1.517-.646 2.095-.427.578-1.007.978-1.74 1.2v.114c.918.151 1.635.542 2.152 1.172.516.625.774 1.399.774 2.322 0 .79-.216 1.501-.647 2.13-.426.626-1.008 1.118-1.747 1.478-.738.36-1.579.54-2.521.54Z"/>
</svg>
