<svg xmlns="http://www.w3.org/2000/svg" width="143" height="41" fill="none" viewBox="0 0 143 41">
  <path fill="#000" d="M5.375 3C2.41 3 0 5.434 0 8.429v5.428c0 2.994 2.41 5.429 5.375 5.429h32.25c2.965 0 5.375-2.435 5.375-5.429V8.43C43 5.434 40.59 3 37.625 3H5.375Zm23.516 6.107c.534 0 1.047.215 1.425.596a2.046 2.046 0 0 1 0 2.88 2.006 2.006 0 0 1-2.85 0 2.046 2.046 0 0 1 0-2.88c.377-.381.89-.596 1.425-.596Zm4.03 2.036c0-.54.213-1.058.591-1.44a2.006 2.006 0 0 1 2.85 0 2.046 2.046 0 0 1 0 2.88 2.006 2.006 0 0 1-2.85 0c-.378-.382-.59-.9-.59-1.44ZM5.376 24.714C2.41 24.714 0 27.15 0 30.143v5.428C0 38.566 2.41 41 5.375 41h32.25C40.59 41 43 38.566 43 35.571v-5.428c0-2.994-2.41-5.429-5.375-5.429H5.375Zm23.516 6.107c.534 0 1.047.215 1.425.597.378.381.59.9.59 1.44 0 .539-.212 1.057-.59 1.439a2.006 2.006 0 0 1-2.85 0 2.046 2.046 0 0 1 0-2.88c.377-.381.89-.596 1.425-.596Zm4.703 2.036c0-.54.212-1.058.59-1.44a2.006 2.006 0 0 1 2.85 0 2.046 2.046 0 0 1 0 2.88 2.005 2.005 0 0 1-2.85 0c-.378-.382-.59-.9-.59-1.44Z"/>
  <path fill="#8CDE3B" d="M63.033 21.104c2.588-2.365 6.098-3.818 9.969-3.818 3.87 0 7.381 1.453 9.97 3.818.48.435 1.237.421 1.694-.033a1.106 1.106 0 0 0-.033-1.614C81.617 16.697 77.518 15 73.002 15s-8.615 1.696-11.635 4.454a1.11 1.11 0 0 0-.033 1.617 1.237 1.237 0 0 0 1.695.033h.004ZM73.002 23c2.13 0 4.073.754 5.558 2a1.246 1.246 0 0 0 1.696-.1 1.108 1.108 0 0 0-.105-1.614c-1.906-1.6-4.411-2.572-7.15-2.572-2.737 0-5.243.972-7.144 2.572a1.105 1.105 0 0 0-.105 1.614 1.242 1.242 0 0 0 1.695.1 8.606 8.606 0 0 1 5.559-2h-.004Zm2.4 5.714c0-.606-.253-1.187-.703-1.616a2.463 2.463 0 0 0-1.697-.67 2.46 2.46 0 0 0-1.697.67 2.232 2.232 0 0 0-.704 1.616c0 .607.253 1.188.704 1.617.45.428 1.06.669 1.697.669.636 0 1.247-.24 1.697-.67.45-.428.703-1.01.703-1.616Z"/>
  <path fill="#000" d="M122.256 3.384a4.151 4.151 0 0 1 3.488 0l16.224 7.497c.631.29 1.032.92 1.032 1.618 0 .698-.401 1.329-1.032 1.618l-16.224 7.497a4.15 4.15 0 0 1-3.488 0l-16.224-7.497a1.783 1.783 0 0 1 0-3.236l16.224-7.497Zm15.764 15.172 3.948 1.826c.631.29 1.032.92 1.032 1.618 0 .698-.401 1.329-1.032 1.618l-16.224 7.497a4.152 4.152 0 0 1-3.488 0l-16.224-7.497a1.783 1.783 0 0 1 0-3.236l3.948-1.826 11.281 5.21a6.54 6.54 0 0 0 5.478 0l11.281-5.21Zm-11.281 14.711 11.281-5.21 3.948 1.826c.631.29 1.032.92 1.032 1.618 0 .698-.401 1.329-1.032 1.618l-16.224 7.497a4.152 4.152 0 0 1-3.488 0l-16.224-7.497a1.783 1.783 0 0 1 0-3.236l3.948-1.826 11.281 5.21a6.54 6.54 0 0 0 5.478 0Z"/>
  <path fill="#5B77F6" d="M112.58 5.074a1.23 1.23 0 0 1 .842 0l3.75 1.35c.496.179.828.653.828 1.187v4.778a1.26 1.26 0 0 1-.83 1.187l-3.75 1.35a1.238 1.238 0 0 1-.842 0l-3.75-1.35A1.26 1.26 0 0 1 108 12.39V7.611c0-.532.332-1.008.83-1.187l3.75-1.35ZM113 6.26l-3.393 1.22L113 8.7l3.393-1.22L113 6.26Zm.625 7.254 3.125-1.124v-3.7l-3.125 1.124v3.7ZM124.58.074a1.23 1.23 0 0 1 .842 0l3.75 1.35c.496.179.828.653.828 1.187v4.778a1.26 1.26 0 0 1-.83 1.187l-3.75 1.35a1.238 1.238 0 0 1-.842 0l-3.75-1.35A1.26 1.26 0 0 1 120 7.39V2.611c0-.532.332-1.008.83-1.187l3.75-1.35ZM125 1.26l-3.393 1.22L125 3.7l3.393-1.22L125 1.26Zm.625 7.254 3.125-1.124v-3.7l-3.125 1.124v3.7Zm9.955-3.44a1.23 1.23 0 0 1 .842 0l3.75 1.35c.496.179.828.653.828 1.187v4.778a1.26 1.26 0 0 1-.83 1.187l-3.75 1.35a1.238 1.238 0 0 1-.842 0l-3.75-1.35A1.26 1.26 0 0 1 131 12.39V7.611c0-.532.332-1.008.83-1.187l3.75-1.35ZM136 6.26l-3.393 1.22L136 8.7l3.393-1.22L136 6.26Zm.625 7.254 3.125-1.124v-3.7l-3.125 1.124v3.7Z"/>
  <path stroke="#000" stroke-linecap="round" d="M59 23H44m58 0H87"/>
</svg>
