<svg width="314" height="156" viewBox="0 0 314 156" fill="none" xmlns="http://www.w3.org/2000/svg">
<rect y="8" width="314" height="148" fill="white"/>
<rect x="4" y="17" width="309" height="138" rx="19" fill="white" stroke="#5B77F6" stroke-width="2"/>
<rect x="19.75" y="32.75" width="278.5" height="47.5" rx="19.25" fill="white" stroke="#5B77F6" stroke-width="1.5"/>
<rect x="19.75" y="86.75" width="278.5" height="61.5" rx="19.25" fill="white" stroke="#5B77F6" stroke-width="1.5"/>
<rect x="63" y="15" width="192" height="7" fill="white"/>
<path d="M90.8187 21.1491V19.9134H91.5005C91.7633 19.9134 91.9834 19.8619 92.161 19.7589C92.3421 19.6559 92.4913 19.5227 92.6084 19.3594C92.7292 19.196 92.8286 19.0256 92.9067 18.848L93.0772 18.4432L89.3059 10.0909H90.7334L93.7377 16.8665L96.4863 10.0909H97.8925L94.1212 19.2315C93.9721 19.5724 93.8016 19.8885 93.6099 20.1797C93.4217 20.4709 93.1642 20.7053 92.8375 20.8828C92.5143 21.0604 92.0758 21.1491 91.5218 21.1491H90.8187ZM98.8327 21V12.8182H102.178C103.059 12.8182 103.758 13.017 104.277 13.4148C104.795 13.8125 105.054 14.3381 105.054 14.9915C105.054 15.4886 104.907 15.8739 104.612 16.1474C104.317 16.4173 103.939 16.6001 103.478 16.696C103.779 16.7386 104.072 16.8452 104.356 17.0156C104.644 17.1861 104.882 17.4205 105.07 17.7188C105.258 18.0135 105.353 18.3757 105.353 18.8054C105.353 19.2244 105.246 19.5991 105.033 19.9293C104.82 20.2596 104.515 20.5206 104.117 20.7124C103.719 20.9041 103.243 21 102.689 21H98.8327ZM100.026 19.8494H102.689C103.122 19.8494 103.462 19.7464 103.707 19.5405C103.952 19.3345 104.074 19.054 104.074 18.6989C104.074 18.2763 103.952 17.9442 103.707 17.7028C103.462 17.4577 103.122 17.3352 102.689 17.3352H100.026V19.8494ZM100.026 16.2486H102.178C102.515 16.2486 102.805 16.2024 103.046 16.1101C103.288 16.0142 103.472 15.8793 103.6 15.7053C103.731 15.5277 103.797 15.3182 103.797 15.0767C103.797 14.7322 103.653 14.4624 103.366 14.267C103.078 14.0682 102.682 13.9688 102.178 13.9688H100.026V16.2486ZM110.686 21.1705C109.898 21.1705 109.218 20.9964 108.646 20.6484C108.078 20.2969 107.639 19.8068 107.33 19.1783C107.025 18.5462 106.872 17.8111 106.872 16.973C106.872 16.1349 107.025 15.3963 107.33 14.7571C107.639 14.1143 108.069 13.6136 108.619 13.255C109.173 12.8928 109.819 12.7116 110.558 12.7116C110.984 12.7116 111.405 12.7827 111.821 12.9247C112.236 13.0668 112.614 13.2976 112.955 13.6172C113.296 13.9332 113.568 14.3523 113.77 14.8743C113.973 15.3963 114.074 16.0391 114.074 16.8026V17.3352H107.767V16.2486H112.795C112.795 15.7869 112.703 15.375 112.518 15.0128C112.337 14.6506 112.078 14.3647 111.741 14.1552C111.407 13.9457 111.013 13.8409 110.558 13.8409C110.057 13.8409 109.624 13.9652 109.258 14.2138C108.896 14.4588 108.617 14.7784 108.422 15.1726C108.227 15.5668 108.129 15.9893 108.129 16.4403V17.1648C108.129 17.7827 108.236 18.3065 108.449 18.7362C108.665 19.1623 108.965 19.4872 109.349 19.7109C109.732 19.9311 110.178 20.0412 110.686 20.0412C111.016 20.0412 111.314 19.995 111.581 19.9027C111.851 19.8068 112.083 19.6648 112.279 19.4766C112.474 19.2848 112.625 19.0469 112.731 18.7628L113.946 19.1037C113.818 19.5156 113.603 19.8778 113.301 20.1903C113 20.4993 112.627 20.7408 112.183 20.9148C111.739 21.0852 111.24 21.1705 110.686 21.1705ZM115.112 23.3438V19.8281H115.794C115.961 19.6541 116.105 19.4659 116.226 19.2635C116.346 19.0611 116.451 18.8214 116.54 18.5444C116.632 18.2638 116.71 17.9229 116.774 17.5217C116.838 17.1168 116.895 16.6286 116.945 16.0568L117.222 12.8182H122.421V19.8281H123.678V23.3438H122.421V21H116.37V23.3438H115.112ZM117.222 19.8281H121.164V13.9901H118.394L118.181 16.0568C118.092 16.9126 117.982 17.6602 117.85 18.2994C117.719 18.9386 117.509 19.4482 117.222 19.8281ZM128.67 21.1705C127.932 21.1705 127.284 20.9947 126.726 20.6431C126.172 20.2915 125.739 19.7997 125.426 19.1676C125.117 18.5355 124.963 17.7969 124.963 16.9517C124.963 16.0994 125.117 15.3555 125.426 14.7198C125.739 14.0842 126.172 13.5906 126.726 13.239C127.284 12.8874 127.932 12.7116 128.67 12.7116C129.409 12.7116 130.055 12.8874 130.609 13.239C131.167 13.5906 131.6 14.0842 131.909 14.7198C132.221 15.3555 132.378 16.0994 132.378 16.9517C132.378 17.7969 132.221 18.5355 131.909 19.1676C131.6 19.7997 131.167 20.2915 130.609 20.6431C130.055 20.9947 129.409 21.1705 128.67 21.1705ZM128.67 20.0412C129.231 20.0412 129.693 19.8974 130.055 19.6097C130.417 19.3221 130.686 18.9439 130.86 18.4751C131.034 18.0064 131.121 17.4986 131.121 16.9517C131.121 16.4048 131.034 15.8952 130.86 15.4229C130.686 14.9506 130.417 14.5689 130.055 14.2777C129.693 13.9865 129.231 13.8409 128.67 13.8409C128.109 13.8409 127.648 13.9865 127.285 14.2777C126.923 14.5689 126.655 14.9506 126.481 15.4229C126.307 15.8952 126.22 16.4048 126.22 16.9517C126.22 17.4986 126.307 18.0064 126.481 18.4751C126.655 18.9439 126.923 19.3221 127.285 19.6097C127.648 19.8974 128.109 20.0412 128.67 20.0412ZM138.771 19.2955L141.626 12.8182H142.819L139.282 21H138.26L134.787 12.8182H135.958L138.771 19.2955ZM135.554 12.8182V21H134.297V12.8182H135.554ZM141.988 21V12.8182H143.245V21H141.988ZM144.822 21V19.8281H145.12C145.365 19.8281 145.57 19.7802 145.733 19.6843C145.896 19.5849 146.028 19.4126 146.127 19.1676C146.23 18.919 146.308 18.5746 146.362 18.1342C146.418 17.6903 146.459 17.1257 146.484 16.4403L146.633 12.8182H152.088V21H150.831V13.9901H147.826L147.699 16.9091C147.67 17.5803 147.61 18.1715 147.517 18.6829C147.429 19.1907 147.292 19.6168 147.107 19.9613C146.926 20.3058 146.685 20.565 146.383 20.739C146.081 20.913 145.703 21 145.248 21H144.822ZM157.825 21.1705C157.036 21.1705 156.356 20.9964 155.784 20.6484C155.216 20.2969 154.778 19.8068 154.469 19.1783C154.163 18.5462 154.011 17.8111 154.011 16.973C154.011 16.1349 154.163 15.3963 154.469 14.7571C154.778 14.1143 155.207 13.6136 155.758 13.255C156.312 12.8928 156.958 12.7116 157.697 12.7116C158.123 12.7116 158.544 12.7827 158.959 12.9247C159.375 13.0668 159.753 13.2976 160.094 13.6172C160.435 13.9332 160.706 14.3523 160.909 14.8743C161.111 15.3963 161.212 16.0391 161.212 16.8026V17.3352H154.906V16.2486H159.934C159.934 15.7869 159.842 15.375 159.657 15.0128C159.476 14.6506 159.217 14.3647 158.879 14.1552C158.545 13.9457 158.151 13.8409 157.697 13.8409C157.196 13.8409 156.763 13.9652 156.397 14.2138C156.035 14.4588 155.756 14.7784 155.561 15.1726C155.365 15.5668 155.268 15.9893 155.268 16.4403V17.1648C155.268 17.7827 155.374 18.3065 155.587 18.7362C155.804 19.1623 156.104 19.4872 156.488 19.7109C156.871 19.9311 157.317 20.0412 157.825 20.0412C158.155 20.0412 158.453 19.995 158.72 19.9027C158.989 19.8068 159.222 19.6648 159.417 19.4766C159.613 19.2848 159.764 19.0469 159.87 18.7628L161.085 19.1037C160.957 19.5156 160.742 19.8778 160.44 20.1903C160.138 20.4993 159.765 20.7408 159.321 20.9148C158.878 21.0852 158.379 21.1705 157.825 21.1705ZM168.601 16.3338V17.5057H164.083V16.3338H168.601ZM164.382 12.8182V21H163.125V12.8182H164.382ZM169.559 12.8182V21H168.302V12.8182H169.559ZM173.112 19.1463L177.054 12.8182H178.503V21H177.246V14.6719L173.325 21H171.855V12.8182H173.112V19.1463ZM185.727 21V13.9688H183.554C183.064 13.9688 182.679 14.0824 182.398 14.3097C182.117 14.5369 181.977 14.8494 181.977 15.2472C181.977 15.6378 182.103 15.945 182.355 16.1687C182.611 16.3924 182.961 16.5043 183.405 16.5043H186.047V17.6761H183.405C182.851 17.6761 182.373 17.5785 181.972 17.3832C181.571 17.1879 181.262 16.9091 181.045 16.5469C180.828 16.1811 180.72 15.7479 180.72 15.2472C180.72 14.7429 180.834 14.3097 181.061 13.9474C181.288 13.5852 181.613 13.3065 182.036 13.1112C182.462 12.9158 182.968 12.8182 183.554 12.8182H186.92V21H185.727ZM180.273 21L182.595 16.9304H183.959L181.636 21H180.273Z" fill="black"/>
<path d="M34.6254 53V52.0412L38.2262 48.0994C38.6488 47.6378 38.9968 47.2365 39.2702 46.8956C39.5437 46.5511 39.7461 46.228 39.8775 45.9261C40.0124 45.6207 40.0799 45.3011 40.0799 44.9673C40.0799 44.5838 39.9876 44.2518 39.8029 43.9712C39.6218 43.6907 39.3732 43.4741 39.0572 43.3214C38.7411 43.1687 38.386 43.0923 37.9918 43.0923C37.5728 43.0923 37.207 43.1793 36.8945 43.3533C36.5856 43.5238 36.3459 43.7635 36.1754 44.0724C36.0085 44.3814 35.9251 44.7436 35.9251 45.1591H34.668C34.668 44.5199 34.8153 43.9588 35.1101 43.4759C35.4048 42.9929 35.8061 42.6165 36.3139 42.3466C36.8253 42.0767 37.3988 41.9418 38.0344 41.9418C38.6737 41.9418 39.2401 42.0767 39.7337 42.3466C40.2273 42.6165 40.6143 42.9805 40.8949 43.4386C41.1754 43.8967 41.3157 44.4062 41.3157 44.9673C41.3157 45.3686 41.2429 45.761 41.0973 46.1445C40.9553 46.5245 40.7067 46.9489 40.3516 47.4176C40 47.8828 39.5117 48.451 38.8867 49.1222L36.4364 51.7429V51.8281H41.5075V53H34.6254ZM47.3935 53.1491C46.6903 53.1491 46.0636 53.0284 45.5131 52.7869C44.9663 52.5455 44.5313 52.2099 44.2081 51.7802C43.8885 51.3469 43.7145 50.8445 43.6861 50.2727H45.0284C45.0568 50.6243 45.1776 50.9279 45.3906 51.1836C45.6037 51.4357 45.8825 51.631 46.2269 51.7695C46.5714 51.908 46.9531 51.9773 47.3722 51.9773C47.8409 51.9773 48.2564 51.8956 48.6186 51.7322C48.9808 51.5689 49.2649 51.3416 49.4709 51.0504C49.6768 50.7592 49.7798 50.4219 49.7798 50.0384C49.7798 49.6371 49.6804 49.2837 49.4815 48.9783C49.2827 48.6694 48.9915 48.4279 48.608 48.2539C48.2244 48.0799 47.7557 47.9929 47.2017 47.9929H46.3281V46.821H47.2017C47.6349 46.821 48.0149 46.7429 48.3416 46.5866C48.6719 46.4304 48.9293 46.2102 49.114 45.9261C49.3022 45.642 49.3963 45.3082 49.3963 44.9247C49.3963 44.5554 49.3146 44.234 49.1513 43.9606C48.9879 43.6871 48.7571 43.4741 48.4588 43.3214C48.1641 43.1687 47.8161 43.0923 47.4148 43.0923C47.0384 43.0923 46.6832 43.1616 46.3494 43.3001C46.0192 43.435 45.7493 43.6321 45.5398 43.8913C45.3303 44.147 45.2166 44.456 45.1989 44.8182H43.9205C43.9418 44.2464 44.114 43.7457 44.4371 43.3161C44.7603 42.8828 45.1829 42.5455 45.7049 42.304C46.2305 42.0625 46.8075 41.9418 47.4361 41.9418C48.1108 41.9418 48.6896 42.0785 49.1726 42.3519C49.6555 42.6218 50.0266 42.9787 50.2859 43.4226C50.5451 43.8665 50.6747 44.3459 50.6747 44.8608C50.6747 45.4751 50.5131 45.9989 50.19 46.4322C49.8704 46.8654 49.4354 47.1655 48.8849 47.3324V47.4176C49.5739 47.5312 50.1119 47.8242 50.4989 48.2965C50.886 48.7653 51.0795 49.3459 51.0795 50.0384C51.0795 50.6314 50.918 51.1641 50.5948 51.6364C50.2752 52.1051 49.8384 52.4744 49.2844 52.7443C48.7305 53.0142 48.1001 53.1491 47.3935 53.1491ZM53.8588 53.0852C53.596 53.0852 53.3705 52.9911 53.1823 52.8029C52.9941 52.6147 52.8999 52.3892 52.8999 52.1264C52.8999 51.8636 52.9941 51.6381 53.1823 51.4499C53.3705 51.2617 53.596 51.1676 53.8588 51.1676C54.1215 51.1676 54.347 51.2617 54.5352 51.4499C54.7235 51.6381 54.8176 51.8636 54.8176 52.1264C54.8176 52.3004 54.7732 52.4602 54.6844 52.6058C54.5992 52.7514 54.4838 52.8686 54.3382 52.9574C54.1961 53.0426 54.0363 53.0852 53.8588 53.0852ZM59.5836 42.0909V53H58.2626V43.4759H58.1987L55.5353 45.2443V43.902L58.2626 42.0909H59.5836ZM66.2793 53.1491C65.4767 53.1491 64.7931 52.9308 64.2285 52.494C63.6639 52.0536 63.2324 51.4162 62.9341 50.5817C62.6358 49.7436 62.4867 48.7315 62.4867 47.5455C62.4867 46.3665 62.6358 45.3597 62.9341 44.5252C63.236 43.6871 63.6692 43.0479 64.2338 42.6076C64.802 42.1637 65.4838 41.9418 66.2793 41.9418C67.0748 41.9418 67.7548 42.1637 68.3194 42.6076C68.8876 43.0479 69.3208 43.6871 69.6191 44.5252C69.921 45.3597 70.0719 46.3665 70.0719 47.5455C70.0719 48.7315 69.9228 49.7436 69.6245 50.5817C69.3262 51.4162 68.8947 52.0536 68.3301 52.494C67.7654 52.9308 67.0819 53.1491 66.2793 53.1491ZM66.2793 51.9773C67.0748 51.9773 67.6926 51.5937 68.133 50.8267C68.5733 50.0597 68.7935 48.9659 68.7935 47.5455C68.7935 46.6009 68.6923 45.7965 68.4899 45.1325C68.291 44.4684 68.0034 43.9624 67.627 43.6143C67.2541 43.2663 66.8049 43.0923 66.2793 43.0923C65.4909 43.0923 64.8748 43.4812 64.4309 44.2589C63.987 45.033 63.7651 46.1286 63.7651 47.5455C63.7651 48.4901 63.8645 49.2926 64.0634 49.9531C64.2623 50.6136 64.5481 51.1161 64.921 51.4606C65.2974 51.805 65.7502 51.9773 66.2793 51.9773ZM76.3361 53V44.8182H77.5932V48.3764H78.4242L81.3645 44.8182H82.9838L79.6813 48.7599L83.0265 53H81.4071L78.7225 49.5483H77.5932V53H76.3361ZM88.782 53V42.0909H92.5959C93.3558 42.0909 93.9826 42.2223 94.4762 42.4851C94.9698 42.7443 95.3374 43.0941 95.5788 43.5344C95.8203 43.9712 95.9411 44.456 95.9411 44.9886C95.9411 45.4574 95.8576 45.8445 95.6907 46.1499C95.5273 46.4553 95.3107 46.6967 95.0408 46.8743C94.7745 47.0518 94.4851 47.1832 94.1726 47.2685V47.375C94.5064 47.3963 94.842 47.5135 95.1793 47.7266C95.5167 47.9396 95.799 48.245 96.0263 48.6428C96.2536 49.0405 96.3672 49.527 96.3672 50.1023C96.3672 50.6491 96.2429 51.141 95.9943 51.5778C95.7457 52.0146 95.3533 52.3608 94.8171 52.6165C94.2809 52.8722 93.5831 53 92.7237 53H88.782ZM90.103 51.8281H92.7237C93.5866 51.8281 94.1992 51.6612 94.5614 51.3274C94.9272 50.9901 95.1101 50.5817 95.1101 50.1023C95.1101 49.733 95.016 49.392 94.8278 49.0795C94.6396 48.7635 94.3714 48.5114 94.0234 48.3232C93.6754 48.1314 93.2635 48.0355 92.7876 48.0355H90.103V51.8281ZM90.103 46.8849H92.5533C92.951 46.8849 93.3097 46.8068 93.6293 46.6506C93.9524 46.4943 94.2081 46.2741 94.3963 45.9901C94.5881 45.706 94.6839 45.3722 94.6839 44.9886C94.6839 44.5092 94.517 44.1026 94.1832 43.7688C93.8494 43.4315 93.3203 43.2628 92.5959 43.2628H90.103V46.8849ZM100.775 53.1918C100.257 53.1918 99.786 53.0941 99.3635 52.8988C98.9409 52.6999 98.6053 52.4141 98.3567 52.0412C98.1081 51.6648 97.9838 51.2102 97.9838 50.6776C97.9838 50.2088 98.0762 49.8288 98.2608 49.5376C98.4455 49.2429 98.6923 49.0121 99.0012 48.8452C99.3102 48.6783 99.6511 48.554 100.024 48.4723C100.4 48.3871 100.779 48.3196 101.159 48.2699C101.656 48.206 102.059 48.158 102.368 48.1261C102.68 48.0906 102.907 48.032 103.05 47.9503C103.195 47.8686 103.268 47.7266 103.268 47.5241V47.4815C103.268 46.956 103.124 46.5476 102.836 46.2564C102.552 45.9652 102.121 45.8196 101.542 45.8196C100.942 45.8196 100.471 45.951 100.131 46.2138C99.7896 46.4766 99.5499 46.7571 99.4114 47.0554L98.2182 46.6293C98.4313 46.1321 98.7154 45.745 99.0705 45.468C99.4292 45.1875 99.8198 44.9922 100.242 44.8821C100.669 44.7685 101.088 44.7116 101.499 44.7116C101.762 44.7116 102.064 44.7436 102.405 44.8075C102.749 44.8679 103.081 44.994 103.401 45.1857C103.724 45.3775 103.992 45.6669 104.205 46.054C104.419 46.4411 104.525 46.9595 104.525 47.6094V53H103.268V51.892H103.204C103.119 52.0696 102.977 52.2596 102.778 52.462C102.579 52.6644 102.314 52.8366 101.984 52.9787C101.654 53.1207 101.251 53.1918 100.775 53.1918ZM100.967 52.0625C101.464 52.0625 101.883 51.9648 102.224 51.7695C102.568 51.5742 102.828 51.3221 103.002 51.0131C103.179 50.7042 103.268 50.3793 103.268 50.0384V48.8878C103.215 48.9517 103.097 49.0103 102.916 49.0636C102.739 49.1133 102.533 49.1577 102.298 49.1967C102.068 49.2322 101.842 49.2642 101.622 49.2926C101.405 49.3175 101.23 49.3388 101.095 49.3565C100.768 49.3991 100.463 49.4684 100.178 49.5643C99.8979 49.6566 99.6706 49.7969 99.4966 49.9851C99.3262 50.1697 99.2409 50.4219 99.2409 50.7415C99.2409 51.1783 99.4025 51.5085 99.7257 51.7322C100.052 51.9524 100.466 52.0625 100.967 52.0625ZM111.294 51.2955L114.149 44.8182H115.342L111.805 53H110.783L107.31 44.8182H108.481L111.294 51.2955ZM108.077 44.8182V53H106.82V44.8182H108.077ZM114.511 53V44.8182H115.768V53H114.511ZM122.288 53V44.8182H125.633C126.514 44.8182 127.214 45.017 127.732 45.4148C128.251 45.8125 128.51 46.3381 128.51 46.9915C128.51 47.4886 128.362 47.8739 128.068 48.1474C127.773 48.4173 127.395 48.6001 126.933 48.696C127.235 48.7386 127.528 48.8452 127.812 49.0156C128.1 49.1861 128.338 49.4205 128.526 49.7188C128.714 50.0135 128.808 50.3757 128.808 50.8054C128.808 51.2244 128.702 51.5991 128.489 51.9293C128.275 52.2596 127.97 52.5206 127.572 52.7124C127.175 52.9041 126.699 53 126.145 53H122.288ZM123.481 51.8494H126.145C126.578 51.8494 126.917 51.7464 127.162 51.5405C127.407 51.3345 127.53 51.054 127.53 50.6989C127.53 50.2763 127.407 49.9442 127.162 49.7028C126.917 49.4577 126.578 49.3352 126.145 49.3352H123.481V51.8494ZM123.481 48.2486H125.633C125.971 48.2486 126.26 48.2024 126.502 48.1101C126.743 48.0142 126.928 47.8793 127.056 47.7053C127.187 47.5277 127.253 47.3182 127.253 47.0767C127.253 46.7322 127.109 46.4624 126.821 46.267C126.534 46.0682 126.138 45.9688 125.633 45.9688H123.481V48.2486ZM138.254 53.1705C137.515 53.1705 136.867 52.9947 136.309 52.6431C135.756 52.2915 135.322 51.7997 135.01 51.1676C134.701 50.5355 134.546 49.7969 134.546 48.9517C134.546 48.0994 134.701 47.3555 135.01 46.7198C135.322 46.0842 135.756 45.5906 136.309 45.239C136.867 44.8874 137.515 44.7116 138.254 44.7116C138.992 44.7116 139.639 44.8874 140.193 45.239C140.75 45.5906 141.183 46.0842 141.492 46.7198C141.805 47.3555 141.961 48.0994 141.961 48.9517C141.961 49.7969 141.805 50.5355 141.492 51.1676C141.183 51.7997 140.75 52.2915 140.193 52.6431C139.639 52.9947 138.992 53.1705 138.254 53.1705ZM138.254 52.0412C138.815 52.0412 139.276 51.8974 139.639 51.6097C140.001 51.3221 140.269 50.9439 140.443 50.4751C140.617 50.0064 140.704 49.4986 140.704 48.9517C140.704 48.4048 140.617 47.8952 140.443 47.4229C140.269 46.9506 140.001 46.5689 139.639 46.2777C139.276 45.9865 138.815 45.8409 138.254 45.8409C137.693 45.8409 137.231 45.9865 136.869 46.2777C136.507 46.5689 136.238 46.9506 136.064 47.4229C135.89 47.8952 135.803 48.4048 135.803 48.9517C135.803 49.4986 135.89 50.0064 136.064 50.4751C136.238 50.9439 136.507 51.3221 136.869 51.6097C137.231 51.8974 137.693 52.0412 138.254 52.0412ZM142.811 45.9901V44.8182H149.458V45.9901H146.774V53H145.517V45.9901H142.811ZM149.73 55.3438V51.8281H150.412C150.579 51.6541 150.723 51.4659 150.843 51.2635C150.964 51.0611 151.069 50.8214 151.158 50.5444C151.25 50.2638 151.328 49.9229 151.392 49.5217C151.456 49.1168 151.513 48.6286 151.562 48.0568L151.839 44.8182H157.038V51.8281H158.295V55.3438H157.038V53H150.987V55.3438H149.73ZM151.839 51.8281H155.781V45.9901H153.011L152.798 48.0568C152.71 48.9126 152.599 49.6602 152.468 50.2994C152.337 50.9386 152.127 51.4482 151.839 51.8281ZM163.394 53.1705C162.606 53.1705 161.926 52.9964 161.354 52.6484C160.786 52.2969 160.348 51.8068 160.039 51.1783C159.733 50.5462 159.581 49.8111 159.581 48.973C159.581 48.1349 159.733 47.3963 160.039 46.7571C160.348 46.1143 160.777 45.6136 161.328 45.255C161.882 44.8928 162.528 44.7116 163.267 44.7116C163.693 44.7116 164.114 44.7827 164.529 44.9247C164.945 45.0668 165.323 45.2976 165.664 45.6172C166.005 45.9332 166.276 46.3523 166.479 46.8743C166.681 47.3963 166.782 48.0391 166.782 48.8026V49.3352H160.475V48.2486H165.504C165.504 47.7869 165.411 47.375 165.227 47.0128C165.046 46.6506 164.786 46.3647 164.449 46.1552C164.115 45.9457 163.721 45.8409 163.267 45.8409C162.766 45.8409 162.333 45.9652 161.967 46.2138C161.605 46.4588 161.326 46.7784 161.131 47.1726C160.935 47.5668 160.838 47.9893 160.838 48.4403V49.1648C160.838 49.7827 160.944 50.3065 161.157 50.7362C161.374 51.1623 161.674 51.4872 162.057 51.7109C162.441 51.9311 162.887 52.0412 163.394 52.0412C163.725 52.0412 164.023 51.995 164.289 51.9027C164.559 51.8068 164.792 51.6648 164.987 51.4766C165.182 51.2848 165.333 51.0469 165.44 50.7628L166.654 51.1037C166.527 51.5156 166.312 51.8778 166.01 52.1903C165.708 52.4993 165.335 52.7408 164.891 52.9148C164.447 53.0852 163.948 53.1705 163.394 53.1705ZM167.97 53V51.8281H168.268C168.513 51.8281 168.718 51.7802 168.881 51.6843C169.044 51.5849 169.176 51.4126 169.275 51.1676C169.378 50.919 169.456 50.5746 169.509 50.1342C169.566 49.6903 169.607 49.1257 169.632 48.4403L169.781 44.8182H175.236V53H173.979V45.9901H170.974L170.847 48.9091C170.818 49.5803 170.758 50.1715 170.665 50.6829C170.577 51.1907 170.44 51.6168 170.255 51.9613C170.074 52.3058 169.833 52.565 169.531 52.739C169.229 52.913 168.851 53 168.396 53H167.97ZM180.973 53.1705C180.184 53.1705 179.504 52.9964 178.932 52.6484C178.364 52.2969 177.926 51.8068 177.617 51.1783C177.311 50.5462 177.159 49.8111 177.159 48.973C177.159 48.1349 177.311 47.3963 177.617 46.7571C177.926 46.1143 178.355 45.6136 178.906 45.255C179.46 44.8928 180.106 44.7116 180.845 44.7116C181.271 44.7116 181.692 44.7827 182.107 44.9247C182.523 45.0668 182.901 45.2976 183.242 45.6172C183.583 45.9332 183.854 46.3523 184.057 46.8743C184.259 47.3963 184.36 48.0391 184.36 48.8026V49.3352H178.054V48.2486H183.082C183.082 47.7869 182.99 47.375 182.805 47.0128C182.624 46.6506 182.365 46.3647 182.027 46.1552C181.693 45.9457 181.299 45.8409 180.845 45.8409C180.344 45.8409 179.911 45.9652 179.545 46.2138C179.183 46.4588 178.904 46.7784 178.709 47.1726C178.513 47.5668 178.416 47.9893 178.416 48.4403V49.1648C178.416 49.7827 178.522 50.3065 178.735 50.7362C178.952 51.1623 179.252 51.4872 179.636 51.7109C180.019 51.9311 180.465 52.0412 180.973 52.0412C181.303 52.0412 181.601 51.995 181.867 51.9027C182.137 51.8068 182.37 51.6648 182.565 51.4766C182.761 51.2848 182.911 51.0469 183.018 50.7628L184.233 51.1037C184.105 51.5156 183.89 51.8778 183.588 52.1903C183.286 52.4993 182.913 52.7408 182.469 52.9148C182.025 53.0852 181.527 53.1705 180.973 53.1705ZM191.748 48.3338V49.5057H187.231V48.3338H191.748ZM187.53 44.8182V53H186.273V44.8182H187.53ZM192.707 44.8182V53H191.45V44.8182H192.707ZM196.26 51.1463L200.202 44.8182H201.651V53H200.394V46.6719L196.473 53H195.003V44.8182H196.26V51.1463ZM207.384 53.1705C206.595 53.1705 205.915 52.9964 205.344 52.6484C204.775 52.2969 204.337 51.8068 204.028 51.1783C203.722 50.5462 203.57 49.8111 203.57 48.973C203.57 48.1349 203.722 47.3963 204.028 46.7571C204.337 46.1143 204.767 45.6136 205.317 45.255C205.871 44.8928 206.517 44.7116 207.256 44.7116C207.682 44.7116 208.103 44.7827 208.518 44.9247C208.934 45.0668 209.312 45.2976 209.653 45.6172C209.994 45.9332 210.265 46.3523 210.468 46.8743C210.67 47.3963 210.771 48.0391 210.771 48.8026V49.3352H204.465V48.2486H209.493C209.493 47.7869 209.401 47.375 209.216 47.0128C209.035 46.6506 208.776 46.3647 208.438 46.1552C208.105 45.9457 207.71 45.8409 207.256 45.8409C206.755 45.8409 206.322 45.9652 205.956 46.2138C205.594 46.4588 205.315 46.7784 205.12 47.1726C204.925 47.5668 204.827 47.9893 204.827 48.4403V49.1648C204.827 49.7827 204.933 50.3065 205.146 50.7362C205.363 51.1623 205.663 51.4872 206.047 51.7109C206.43 51.9311 206.876 52.0412 207.384 52.0412C207.714 52.0412 208.012 51.995 208.279 51.9027C208.548 51.8068 208.781 51.6648 208.976 51.4766C209.172 51.2848 209.323 51.0469 209.429 50.7628L210.644 51.1037C210.516 51.5156 210.301 51.8778 209.999 52.1903C209.697 52.4993 209.324 52.7408 208.881 52.9148C208.437 53.0852 207.938 53.1705 207.384 53.1705ZM216.903 53V44.8182H223.337V53H222.08V45.9901H218.16V53H216.903ZM228.957 53.1705C228.218 53.1705 227.57 52.9947 227.013 52.6431C226.459 52.2915 226.025 51.7997 225.713 51.1676C225.404 50.5355 225.249 49.7969 225.249 48.9517C225.249 48.0994 225.404 47.3555 225.713 46.7198C226.025 46.0842 226.459 45.5906 227.013 45.239C227.57 44.8874 228.218 44.7116 228.957 44.7116C229.695 44.7116 230.342 44.8874 230.896 45.239C231.453 45.5906 231.887 46.0842 232.195 46.7198C232.508 47.3555 232.664 48.0994 232.664 48.9517C232.664 49.7969 232.508 50.5355 232.195 51.1676C231.887 51.7997 231.453 52.2915 230.896 52.6431C230.342 52.9947 229.695 53.1705 228.957 53.1705ZM228.957 52.0412C229.518 52.0412 229.98 51.8974 230.342 51.6097C230.704 51.3221 230.972 50.9439 231.146 50.4751C231.32 50.0064 231.407 49.4986 231.407 48.9517C231.407 48.4048 231.32 47.8952 231.146 47.4229C230.972 46.9506 230.704 46.5689 230.342 46.2777C229.98 45.9865 229.518 45.8409 228.957 45.8409C228.396 45.8409 227.934 45.9865 227.572 46.2777C227.21 46.5689 226.942 46.9506 226.768 47.4229C226.594 47.8952 226.507 48.4048 226.507 48.9517C226.507 49.4986 226.594 50.0064 226.768 50.4751C226.942 50.9439 227.21 51.3221 227.572 51.6097C227.934 51.8974 228.396 52.0412 228.957 52.0412ZM233.71 55.3438V51.8281H234.391C234.558 51.6541 234.702 51.4659 234.823 51.2635C234.944 51.0611 235.048 50.8214 235.137 50.5444C235.229 50.2638 235.308 49.9229 235.372 49.5217C235.435 49.1168 235.492 48.6286 235.542 48.0568L235.819 44.8182H241.018V51.8281H242.275V55.3438H241.018V53H234.967V55.3438H233.71ZM235.819 51.8281H239.761V45.9901H236.991L236.778 48.0568C236.689 48.9126 236.579 49.6602 236.448 50.2994C236.316 50.9386 236.107 51.4482 235.819 51.8281ZM247.267 53.1705C246.529 53.1705 245.881 52.9947 245.323 52.6431C244.769 52.2915 244.336 51.7997 244.023 51.1676C243.714 50.5355 243.56 49.7969 243.56 48.9517C243.56 48.0994 243.714 47.3555 244.023 46.7198C244.336 46.0842 244.769 45.5906 245.323 45.239C245.881 44.8874 246.529 44.7116 247.267 44.7116C248.006 44.7116 248.652 44.8874 249.206 45.239C249.764 45.5906 250.197 46.0842 250.506 46.7198C250.819 47.3555 250.975 48.0994 250.975 48.9517C250.975 49.7969 250.819 50.5355 250.506 51.1676C250.197 51.7997 249.764 52.2915 249.206 52.6431C248.652 52.9947 248.006 53.1705 247.267 53.1705ZM247.267 52.0412C247.828 52.0412 248.29 51.8974 248.652 51.6097C249.015 51.3221 249.283 50.9439 249.457 50.4751C249.631 50.0064 249.718 49.4986 249.718 48.9517C249.718 48.4048 249.631 47.8952 249.457 47.4229C249.283 46.9506 249.015 46.5689 248.652 46.2777C248.29 45.9865 247.828 45.8409 247.267 45.8409C246.706 45.8409 246.245 45.9865 245.882 46.2777C245.52 46.5689 245.252 46.9506 245.078 47.4229C244.904 47.8952 244.817 48.4048 244.817 48.9517C244.817 49.4986 244.904 50.0064 245.078 50.4751C245.252 50.9439 245.52 51.3221 245.882 51.6097C246.245 51.8974 246.706 52.0412 247.267 52.0412ZM254.151 51.1463L258.093 44.8182H259.541V53H258.284V46.6719L254.364 53H252.894V44.8182H254.151V51.1463ZM257.262 42.0909H258.434C258.434 42.6662 258.235 43.1367 257.837 43.5025C257.439 43.8683 256.899 44.0511 256.218 44.0511C255.546 44.0511 255.012 43.8683 254.614 43.5025C254.22 43.1367 254.023 42.6662 254.023 42.0909H255.195C255.195 42.3679 255.271 42.6112 255.424 42.8207C255.58 43.0302 255.845 43.1349 256.218 43.1349C256.59 43.1349 256.857 43.0302 257.017 42.8207C257.18 42.6112 257.262 42.3679 257.262 42.0909ZM260.97 55.3438V51.8281H261.652C261.819 51.6541 261.963 51.4659 262.084 51.2635C262.204 51.0611 262.309 50.8214 262.398 50.5444C262.49 50.2638 262.568 49.9229 262.632 49.5217C262.696 49.1168 262.753 48.6286 262.803 48.0568L263.08 44.8182H268.279V51.8281H269.536V55.3438H268.279V53H262.227V55.3438H260.97ZM263.08 51.8281H267.021V45.9901H264.252L264.039 48.0568C263.95 48.9126 263.84 49.6602 263.708 50.2994C263.577 50.9386 263.367 51.4482 263.08 51.8281ZM274.635 53.1705C273.846 53.1705 273.166 52.9964 272.595 52.6484C272.026 52.2969 271.588 51.8068 271.279 51.1783C270.973 50.5462 270.821 49.8111 270.821 48.973C270.821 48.1349 270.973 47.3963 271.279 46.7571C271.588 46.1143 272.017 45.6136 272.568 45.255C273.122 44.8928 273.768 44.7116 274.507 44.7116C274.933 44.7116 275.354 44.7827 275.769 44.9247C276.185 45.0668 276.563 45.2976 276.904 45.6172C277.245 45.9332 277.516 46.3523 277.719 46.8743C277.921 47.3963 278.022 48.0391 278.022 48.8026V49.3352H271.716V48.2486H276.744C276.744 47.7869 276.652 47.375 276.467 47.0128C276.286 46.6506 276.027 46.3647 275.689 46.1552C275.356 45.9457 274.961 45.8409 274.507 45.8409C274.006 45.8409 273.573 45.9652 273.207 46.2138C272.845 46.4588 272.566 46.7784 272.371 47.1726C272.176 47.5668 272.078 47.9893 272.078 48.4403V49.1648C272.078 49.7827 272.184 50.3065 272.397 50.7362C272.614 51.1623 272.914 51.4872 273.298 51.7109C273.681 51.9311 274.127 52.0412 274.635 52.0412C274.965 52.0412 275.263 51.995 275.53 51.9027C275.799 51.8068 276.032 51.6648 276.227 51.4766C276.423 51.2848 276.574 51.0469 276.68 50.7628L277.895 51.1037C277.767 51.5156 277.552 51.8778 277.25 52.1903C276.948 52.4993 276.575 52.7408 276.131 52.9148C275.688 53.0852 275.189 53.1705 274.635 53.1705ZM279.173 45.9901V44.8182H285.821V45.9901H283.136V53H281.879V45.9901H279.173ZM42.4822 71.1705C41.7152 71.1705 41.0547 70.9893 40.5007 70.6271C39.9467 70.2649 39.5206 69.766 39.2223 69.1303C38.924 68.4947 38.7749 67.7685 38.7749 66.9517C38.7749 66.1207 38.9276 65.3874 39.233 64.7518C39.5419 64.1126 39.9716 63.6136 40.522 63.255C41.076 62.8928 41.7223 62.7116 42.4609 62.7116C43.0362 62.7116 43.5547 62.8182 44.0163 63.0312C44.478 63.2443 44.8562 63.5426 45.1509 63.9261C45.4457 64.3097 45.6286 64.7571 45.6996 65.2685H44.4425C44.3466 64.8956 44.1335 64.5653 43.8033 64.2777C43.4766 63.9865 43.0362 63.8409 42.4822 63.8409C41.9922 63.8409 41.5625 63.9687 41.1932 64.2244C40.8274 64.4766 40.5415 64.8335 40.3356 65.2951C40.1332 65.7532 40.032 66.2912 40.032 66.9091C40.032 67.5412 40.1314 68.0916 40.3303 68.5604C40.5327 69.0291 40.8168 69.3931 41.1825 69.6523C41.5518 69.9116 41.9851 70.0412 42.4822 70.0412C42.8089 70.0412 43.1055 69.9844 43.3718 69.8707C43.6381 69.7571 43.8636 69.5938 44.0483 69.3807C44.233 69.1676 44.3643 68.9119 44.4425 68.6136H45.6996C45.6286 69.0966 45.4528 69.5316 45.1722 69.9187C44.8952 70.3022 44.5277 70.6076 44.0696 70.8349C43.6151 71.0586 43.0859 71.1705 42.4822 71.1705ZM47.5373 71V62.8182H53.9719V71H52.7148V63.9901H48.7944V71H47.5373ZM59.6982 71.1705C58.9098 71.1705 58.2298 70.9964 57.658 70.6484C57.0898 70.2969 56.6513 69.8068 56.3423 69.1783C56.0369 68.5462 55.8842 67.8111 55.8842 66.973C55.8842 66.1349 56.0369 65.3963 56.3423 64.7571C56.6513 64.1143 57.081 63.6136 57.6314 63.255C58.1854 62.8928 58.8317 62.7116 59.5703 62.7116C59.9964 62.7116 60.4173 62.7827 60.8327 62.9247C61.2482 63.0668 61.6264 63.2976 61.9673 63.6172C62.3082 63.9332 62.5799 64.3523 62.7823 64.8743C62.9847 65.3963 63.0859 66.0391 63.0859 66.8026V67.3352H56.7791V66.2486H61.8075C61.8075 65.7869 61.7152 65.375 61.5305 65.0128C61.3494 64.6506 61.0902 64.3647 60.7528 64.1552C60.419 63.9457 60.0249 63.8409 59.5703 63.8409C59.0696 63.8409 58.6364 63.9652 58.2706 64.2138C57.9084 64.4588 57.6296 64.7784 57.4343 65.1726C57.239 65.5668 57.1413 65.9893 57.1413 66.4403V67.1648C57.1413 67.7827 57.2479 68.3065 57.4609 68.7362C57.6776 69.1623 57.9776 69.4872 58.3612 69.7109C58.7447 69.9311 59.1903 70.0412 59.6982 70.0412C60.0284 70.0412 60.3267 69.995 60.593 69.9027C60.8629 69.8068 61.0955 69.6648 61.2908 69.4766C61.4862 69.2848 61.6371 69.0469 61.7436 68.7628L62.9581 69.1037C62.8303 69.5156 62.6154 69.8778 62.3136 70.1903C62.0117 70.4993 61.6388 70.7408 61.195 70.9148C60.7511 71.0852 60.2521 71.1705 59.6982 71.1705ZM71.4329 62.8182V69.8281H72.5835V73.642H71.3263V71H64.9982V62.8182H66.2553V69.8281H70.1758V62.8182H71.4329ZM75.7768 69.1463L79.7186 62.8182H81.1674V71H79.9103V64.6719L75.9899 71H74.5197V62.8182H75.7768V69.1463ZM85.8776 71.1918C85.3591 71.1918 84.8886 71.0941 84.466 70.8988C84.0434 70.6999 83.7078 70.4141 83.4593 70.0412C83.2107 69.6648 83.0864 69.2102 83.0864 68.6776C83.0864 68.2088 83.1787 67.8288 83.3634 67.5376C83.548 67.2429 83.7948 67.0121 84.1038 66.8452C84.4127 66.6783 84.7536 66.554 85.1265 66.4723C85.5029 66.3871 85.8811 66.3196 86.2611 66.2699C86.7583 66.206 87.1613 66.158 87.4703 66.1261C87.7828 66.0906 88.01 66.032 88.1521 65.9503C88.2977 65.8686 88.3705 65.7266 88.3705 65.5241V65.4815C88.3705 64.956 88.2267 64.5476 87.939 64.2564C87.6549 63.9652 87.2235 63.8196 86.6446 63.8196C86.0445 63.8196 85.574 63.951 85.233 64.2138C84.8921 64.4766 84.6524 64.7571 84.5139 65.0554L83.3208 64.6293C83.5338 64.1321 83.8179 63.745 84.173 63.468C84.5317 63.1875 84.9223 62.9922 85.3449 62.8821C85.771 62.7685 86.1901 62.7116 86.602 62.7116C86.8648 62.7116 87.1666 62.7436 87.5075 62.8075C87.852 62.8679 88.184 62.994 88.5036 63.1857C88.8268 63.3775 89.0949 63.6669 89.308 64.054C89.521 64.4411 89.6276 64.9595 89.6276 65.6094V71H88.3705V69.892H88.3066C88.2213 70.0696 88.0793 70.2596 87.8804 70.462C87.6816 70.6644 87.417 70.8366 87.0867 70.9787C86.7565 71.1207 86.3534 71.1918 85.8776 71.1918ZM86.0693 70.0625C86.5665 70.0625 86.9855 69.9648 87.3264 69.7695C87.6709 69.5742 87.9301 69.3221 88.1041 69.0131C88.2817 68.7042 88.3705 68.3793 88.3705 68.0384V66.8878C88.3172 66.9517 88.2 67.0103 88.0189 67.0636C87.8414 67.1133 87.6354 67.1577 87.401 67.1967C87.1702 67.2322 86.9447 67.2642 86.7245 67.2926C86.5079 67.3175 86.3321 67.3388 86.1972 67.3565C85.8705 67.3991 85.5651 67.4684 85.281 67.5643C85.0004 67.6566 84.7732 67.7969 84.5992 67.9851C84.4287 68.1697 84.3435 68.4219 84.3435 68.7415C84.3435 69.1783 84.5051 69.5085 84.8282 69.7322C85.1549 69.9524 85.5686 70.0625 86.0693 70.0625ZM91.1976 71V69.8281H91.4959C91.7409 69.8281 91.9451 69.7802 92.1085 69.6843C92.2718 69.5849 92.4032 69.4126 92.5027 69.1676C92.6056 68.919 92.6838 68.5746 92.737 68.1342C92.7939 67.6903 92.8347 67.1257 92.8596 66.4403L93.0087 62.8182H98.4632V71H97.2061V63.9901H94.2019L94.074 66.9091C94.0456 67.5803 93.9853 68.1715 93.8929 68.6829C93.8042 69.1907 93.6674 69.6168 93.4828 69.9613C93.3017 70.3058 93.0602 70.565 92.7583 70.739C92.4565 70.913 92.0783 71 91.6238 71H91.1976ZM102.027 69.1463L105.969 62.8182H107.417V71H106.16V64.6719L102.24 71H100.77V62.8182H102.027V69.1463ZM113.044 71.1705C112.277 71.1705 111.616 70.9893 111.062 70.6271C110.508 70.2649 110.082 69.766 109.784 69.1303C109.486 68.4947 109.336 67.7685 109.336 66.9517C109.336 66.1207 109.489 65.3874 109.794 64.7518C110.103 64.1126 110.533 63.6136 111.084 63.255C111.638 62.8928 112.284 62.7116 113.022 62.7116C113.598 62.7116 114.116 62.8182 114.578 63.0312C115.04 63.2443 115.418 63.5426 115.712 63.9261C116.007 64.3097 116.19 64.7571 116.261 65.2685H115.004C114.908 64.8956 114.695 64.5653 114.365 64.2777C114.038 63.9865 113.598 63.8409 113.044 63.8409C112.554 63.8409 112.124 63.9687 111.755 64.2244C111.389 64.4766 111.103 64.8335 110.897 65.2951C110.695 65.7532 110.593 66.2912 110.593 66.9091C110.593 67.5412 110.693 68.0916 110.892 68.5604C111.094 69.0291 111.378 69.3931 111.744 69.6523C112.113 69.9116 112.547 70.0412 113.044 70.0412C113.37 70.0412 113.667 69.9844 113.933 69.8707C114.2 69.7571 114.425 69.5938 114.61 69.3807C114.794 69.1676 114.926 68.9119 115.004 68.6136H116.261C116.19 69.0966 116.014 69.5316 115.734 69.9187C115.457 70.3022 115.089 70.6076 114.631 70.8349C114.177 71.0586 113.647 71.1705 113.044 71.1705ZM117.454 63.9901V62.8182H124.102V63.9901H121.417V71H120.16V63.9901H117.454ZM130.154 71V62.8182H136.589V71H135.332V63.9901H131.412V71H130.154ZM142.209 71.1705C141.47 71.1705 140.822 70.9947 140.265 70.6431C139.711 70.2915 139.277 69.7997 138.965 69.1676C138.656 68.5355 138.501 67.7969 138.501 66.9517C138.501 66.0994 138.656 65.3555 138.965 64.7198C139.277 64.0842 139.711 63.5906 140.265 63.239C140.822 62.8874 141.47 62.7116 142.209 62.7116C142.947 62.7116 143.594 62.8874 144.148 63.239C144.705 63.5906 145.138 64.0842 145.447 64.7198C145.76 65.3555 145.916 66.0994 145.916 66.9517C145.916 67.7969 145.76 68.5355 145.447 69.1676C145.138 69.7997 144.705 70.2915 144.148 70.6431C143.594 70.9947 142.947 71.1705 142.209 71.1705ZM142.209 70.0412C142.77 70.0412 143.232 69.8974 143.594 69.6097C143.956 69.3221 144.224 68.9439 144.398 68.4751C144.572 68.0064 144.659 67.4986 144.659 66.9517C144.659 66.4048 144.572 65.8952 144.398 65.4229C144.224 64.9506 143.956 64.5689 143.594 64.2777C143.232 63.9865 142.77 63.8409 142.209 63.8409C141.648 63.8409 141.186 63.9865 140.824 64.2777C140.462 64.5689 140.194 64.9506 140.02 65.4229C139.846 65.8952 139.759 66.4048 139.759 66.9517C139.759 67.4986 139.846 68.0064 140.02 68.4751C140.194 68.9439 140.462 69.3221 140.824 69.6097C141.186 69.8974 141.648 70.0412 142.209 70.0412ZM152.054 74.0682V62.8182H153.268V64.1179H153.418C153.51 63.9759 153.638 63.7947 153.801 63.5746C153.968 63.3509 154.206 63.152 154.515 62.978C154.827 62.8004 155.25 62.7116 155.783 62.7116C156.472 62.7116 157.079 62.8839 157.604 63.2283C158.13 63.5728 158.54 64.0611 158.835 64.6932C159.13 65.3253 159.277 66.071 159.277 66.9304C159.277 67.7969 159.13 68.5479 158.835 69.1836C158.54 69.8157 158.132 70.3058 157.61 70.6538C157.088 70.9982 156.486 71.1705 155.804 71.1705C155.278 71.1705 154.858 71.0835 154.541 70.9094C154.225 70.7319 153.982 70.5312 153.812 70.3075C153.641 70.0803 153.51 69.892 153.418 69.7429H153.311V74.0682H152.054ZM153.29 66.9091C153.29 67.527 153.38 68.0721 153.561 68.5444C153.742 69.0131 154.007 69.3807 154.355 69.647C154.703 69.9098 155.129 70.0412 155.633 70.0412C156.159 70.0412 156.598 69.9027 156.949 69.6257C157.304 69.3452 157.571 68.9687 157.748 68.4964C157.929 68.0206 158.02 67.4915 158.02 66.9091C158.02 66.3338 157.931 65.8153 157.753 65.3537C157.579 64.8885 157.315 64.521 156.96 64.2511C156.608 63.9776 156.166 63.8409 155.633 63.8409C155.122 63.8409 154.692 63.9705 154.344 64.2298C153.996 64.4854 153.734 64.8441 153.556 65.3058C153.378 65.7638 153.29 66.2983 153.29 66.9091ZM164.625 71.1705C163.837 71.1705 163.157 70.9964 162.585 70.6484C162.017 70.2969 161.578 69.8068 161.269 69.1783C160.964 68.5462 160.811 67.8111 160.811 66.973C160.811 66.1349 160.964 65.3963 161.269 64.7571C161.578 64.1143 162.008 63.6136 162.558 63.255C163.112 62.8928 163.758 62.7116 164.497 62.7116C164.923 62.7116 165.344 62.7827 165.759 62.9247C166.175 63.0668 166.553 63.2976 166.894 63.6172C167.235 63.9332 167.507 64.3523 167.709 64.8743C167.911 65.3963 168.013 66.0391 168.013 66.8026V67.3352H161.706V66.2486H166.734C166.734 65.7869 166.642 65.375 166.457 65.0128C166.276 64.6506 166.017 64.3647 165.68 64.1552C165.346 63.9457 164.952 63.8409 164.497 63.8409C163.996 63.8409 163.563 63.9652 163.197 64.2138C162.835 64.4588 162.556 64.7784 162.361 65.1726C162.166 65.5668 162.068 65.9893 162.068 66.4403V67.1648C162.068 67.7827 162.175 68.3065 162.388 68.7362C162.604 69.1623 162.904 69.4872 163.288 69.7109C163.671 69.9311 164.117 70.0412 164.625 70.0412C164.955 70.0412 165.253 69.995 165.52 69.9027C165.79 69.8068 166.022 69.6648 166.218 69.4766C166.413 69.2848 166.564 69.0469 166.67 68.7628L167.885 69.1037C167.757 69.5156 167.542 69.8778 167.24 70.1903C166.938 70.4993 166.566 70.7408 166.122 70.9148C165.678 71.0852 165.179 71.1705 164.625 71.1705ZM174.399 69.2955L177.255 62.8182H178.448L174.911 71H173.888L170.415 62.8182H171.587L174.399 69.2955ZM171.182 62.8182V71H169.925V62.8182H171.182ZM177.617 71V62.8182H178.874V71H177.617ZM184.499 71.1705C183.76 71.1705 183.112 70.9947 182.555 70.6431C182.001 70.2915 181.567 69.7997 181.255 69.1676C180.946 68.5355 180.791 67.7969 180.791 66.9517C180.791 66.0994 180.946 65.3555 181.255 64.7198C181.567 64.0842 182.001 63.5906 182.555 63.239C183.112 62.8874 183.76 62.7116 184.499 62.7116C185.237 62.7116 185.884 62.8874 186.438 63.239C186.995 63.5906 187.429 64.0842 187.737 64.7198C188.05 65.3555 188.206 66.0994 188.206 66.9517C188.206 67.7969 188.05 68.5355 187.737 69.1676C187.429 69.7997 186.995 70.2915 186.438 70.6431C185.884 70.9947 185.237 71.1705 184.499 71.1705ZM184.499 70.0412C185.06 70.0412 185.522 69.8974 185.884 69.6097C186.246 69.3221 186.514 68.9439 186.688 68.4751C186.862 68.0064 186.949 67.4986 186.949 66.9517C186.949 66.4048 186.862 65.8952 186.688 65.4229C186.514 64.9506 186.246 64.5689 185.884 64.2777C185.522 63.9865 185.06 63.8409 184.499 63.8409C183.938 63.8409 183.476 63.9865 183.114 64.2777C182.752 64.5689 182.484 64.9506 182.31 65.4229C182.136 65.8952 182.049 66.4048 182.049 66.9517C182.049 67.4986 182.136 68.0064 182.31 68.4751C182.484 68.9439 182.752 69.3221 183.114 69.6097C183.476 69.8974 183.938 70.0412 184.499 70.0412ZM195.601 66.3338V67.5057H191.084V66.3338H195.601ZM191.382 62.8182V71H190.125V62.8182H191.382ZM196.56 62.8182V71H195.303V62.8182H196.56ZM197.742 63.9901V62.8182H204.39V63.9901H201.705V71H200.448V63.9901H197.742ZM207.033 74.0682C206.82 74.0682 206.63 74.0504 206.464 74.0149C206.297 73.983 206.181 73.951 206.117 73.919L206.437 72.8111C206.742 72.8892 207.012 72.9176 207.247 72.8963C207.481 72.875 207.689 72.7702 207.87 72.582C208.054 72.3974 208.223 72.0973 208.376 71.6818L208.61 71.0426L205.585 62.8182H206.948L209.207 69.3381H209.292L211.551 62.8182H212.914L209.441 72.1932C209.285 72.6158 209.091 72.9656 208.861 73.2425C208.63 73.5231 208.362 73.7308 208.056 73.8658C207.754 74.0007 207.413 74.0682 207.033 74.0682ZM222.116 71.1705C221.349 71.1705 220.688 70.9893 220.134 70.6271C219.581 70.2649 219.154 69.766 218.856 69.1303C218.558 68.4947 218.409 67.7685 218.409 66.9517C218.409 66.1207 218.561 65.3874 218.867 64.7518C219.176 64.1126 219.605 63.6136 220.156 63.255C220.71 62.8928 221.356 62.7116 222.095 62.7116C222.67 62.7116 223.188 62.8182 223.65 63.0312C224.112 63.2443 224.49 63.5426 224.785 63.9261C225.079 64.3097 225.262 64.7571 225.333 65.2685H224.076C223.98 64.8956 223.767 64.5653 223.437 64.2777C223.11 63.9865 222.67 63.8409 222.116 63.8409C221.626 63.8409 221.196 63.9687 220.827 64.2244C220.461 64.4766 220.175 64.8335 219.969 65.2951C219.767 65.7532 219.666 66.2912 219.666 66.9091C219.666 67.5412 219.765 68.0916 219.964 68.5604C220.166 69.0291 220.451 69.3931 220.816 69.6523C221.186 69.9116 221.619 70.0412 222.116 70.0412C222.443 70.0412 222.739 69.9844 223.006 69.8707C223.272 69.7571 223.497 69.5938 223.682 69.3807C223.867 69.1676 223.998 68.9119 224.076 68.6136H225.333C225.262 69.0966 225.087 69.5316 224.806 69.9187C224.529 70.3022 224.161 70.6076 223.703 70.8349C223.249 71.0586 222.72 71.1705 222.116 71.1705ZM228.428 69.1463L232.37 62.8182H233.819V71H232.562V64.6719L228.641 71H227.171V62.8182H228.428V69.1463ZM239.445 71.1705C238.678 71.1705 238.018 70.9893 237.464 70.6271C236.91 70.2649 236.483 69.766 236.185 69.1303C235.887 68.4947 235.738 67.7685 235.738 66.9517C235.738 66.1207 235.89 65.3874 236.196 64.7518C236.505 64.1126 236.934 63.6136 237.485 63.255C238.039 62.8928 238.685 62.7116 239.424 62.7116C239.999 62.7116 240.518 62.8182 240.979 63.0312C241.441 63.2443 241.819 63.5426 242.114 63.9261C242.409 64.3097 242.591 64.7571 242.662 65.2685H241.405C241.309 64.8956 241.096 64.5653 240.766 64.2777C240.439 63.9865 239.999 63.8409 239.445 63.8409C238.955 63.8409 238.525 63.9687 238.156 64.2244C237.79 64.4766 237.504 64.8335 237.298 65.2951C237.096 65.7532 236.995 66.2912 236.995 66.9091C236.995 67.5412 237.094 68.0916 237.293 68.5604C237.496 69.0291 237.78 69.3931 238.145 69.6523C238.515 69.9116 238.948 70.0412 239.445 70.0412C239.772 70.0412 240.068 69.9844 240.335 69.8707C240.601 69.7571 240.827 69.5938 241.011 69.3807C241.196 69.1676 241.327 68.9119 241.405 68.6136H242.662C242.591 69.0966 242.416 69.5316 242.135 69.9187C241.858 70.3022 241.491 70.6076 241.032 70.8349C240.578 71.0586 240.049 71.1705 239.445 71.1705ZM243.856 63.9901V62.8182H250.503V63.9901H247.819V71H246.562V63.9901H243.856ZM255.343 71.1705C254.554 71.1705 253.874 70.9964 253.303 70.6484C252.734 70.2969 252.296 69.8068 251.987 69.1783C251.681 68.5462 251.529 67.8111 251.529 66.973C251.529 66.1349 251.681 65.3963 251.987 64.7571C252.296 64.1143 252.725 63.6136 253.276 63.255C253.83 62.8928 254.476 62.7116 255.215 62.7116C255.641 62.7116 256.062 62.7827 256.477 62.9247C256.893 63.0668 257.271 63.2976 257.612 63.6172C257.953 63.9332 258.224 64.3523 258.427 64.8743C258.629 65.3963 258.73 66.0391 258.73 66.8026V67.3352H252.424V66.2486H257.452C257.452 65.7869 257.36 65.375 257.175 65.0128C256.994 64.6506 256.735 64.3647 256.397 64.1552C256.064 63.9457 255.669 63.8409 255.215 63.8409C254.714 63.8409 254.281 63.9652 253.915 64.2138C253.553 64.4588 253.274 64.7784 253.079 65.1726C252.884 65.5668 252.786 65.9893 252.786 66.4403V67.1648C252.786 67.7827 252.892 68.3065 253.105 68.7362C253.322 69.1623 253.622 69.4872 254.006 69.7109C254.389 69.9311 254.835 70.0412 255.343 70.0412C255.673 70.0412 255.971 69.995 256.238 69.9027C256.507 69.8068 256.74 69.6648 256.935 69.4766C257.131 69.2848 257.282 69.0469 257.388 68.7628L258.603 69.1037C258.475 69.5156 258.26 69.8778 257.958 70.1903C257.656 70.4993 257.283 70.7408 256.839 70.9148C256.396 71.0852 255.897 71.1705 255.343 71.1705ZM265.117 69.2955L267.972 62.8182H269.165L265.629 71H264.606L261.133 62.8182H262.305L265.117 69.2955ZM261.9 62.8182V71H260.643V62.8182H261.9ZM268.335 71V62.8182H269.592V71H268.335ZM272.979 65.7798H275.323C276.282 65.7798 277.015 66.0231 277.523 66.5096C278.031 66.9961 278.285 67.6122 278.285 68.358C278.285 68.848 278.171 69.2937 277.944 69.695C277.717 70.0927 277.383 70.4105 276.942 70.6484C276.502 70.8828 275.962 71 275.323 71H271.893V62.8182H273.15V69.8281H275.323C275.82 69.8281 276.229 69.6967 276.548 69.4339C276.868 69.1712 277.028 68.8338 277.028 68.4219C277.028 67.9886 276.868 67.6353 276.548 67.3619C276.229 67.0884 275.82 66.9517 275.323 66.9517H272.979V65.7798ZM279.585 71V62.8182H280.842V71H279.585Z" fill="black"/>
<path d="M42.2805 105V94.0909H45.9666C46.8224 94.0909 47.522 94.2454 48.0653 94.5543C48.6122 94.8597 49.017 95.2734 49.2798 95.7955C49.5426 96.3175 49.674 96.8999 49.674 97.5426C49.674 98.1854 49.5426 98.7695 49.2798 99.2951C49.0206 99.8207 48.6193 100.24 48.076 100.552C47.5326 100.861 46.8366 101.016 45.9879 101.016H43.3458V99.8438H45.9453C46.5312 99.8438 47.0017 99.7425 47.3568 99.5401C47.712 99.3377 47.9694 99.0643 48.1292 98.7198C48.2926 98.3718 48.3742 97.9794 48.3742 97.5426C48.3742 97.1058 48.2926 96.7152 48.1292 96.3707C47.9694 96.0263 47.7102 95.7564 47.3515 95.5611C46.9929 95.3622 46.517 95.2628 45.924 95.2628H43.6015V105H42.2805ZM54.974 105.17C54.1857 105.17 53.5056 104.996 52.9339 104.648C52.3657 104.297 51.9272 103.807 51.6182 103.178C51.3128 102.546 51.1601 101.811 51.1601 100.973C51.1601 100.135 51.3128 99.3963 51.6182 98.7571C51.9272 98.1143 52.3568 97.6136 52.9073 97.255C53.4612 96.8928 54.1076 96.7116 54.8462 96.7116C55.2723 96.7116 55.6931 96.7827 56.1086 96.9247C56.5241 97.0668 56.9023 97.2976 57.2432 97.6172C57.5841 97.9332 57.8558 98.3523 58.0582 98.8743C58.2606 99.3963 58.3618 100.039 58.3618 100.803V101.335H52.055V100.249H57.0834C57.0834 99.7869 56.9911 99.375 56.8064 99.0128C56.6253 98.6506 56.3661 98.3647 56.0287 98.1552C55.6949 97.9457 55.3007 97.8409 54.8462 97.8409C54.3455 97.8409 53.9122 97.9652 53.5465 98.2138C53.1843 98.4588 52.9055 98.7784 52.7102 99.1726C52.5149 99.5668 52.4172 99.9893 52.4172 100.44V101.165C52.4172 101.783 52.5237 102.306 52.7368 102.736C52.9534 103.162 53.2535 103.487 53.637 103.711C54.0206 103.931 54.4662 104.041 54.974 104.041C55.3043 104.041 55.6026 103.995 55.8689 103.903C56.1388 103.807 56.3714 103.665 56.5667 103.477C56.762 103.285 56.913 103.047 57.0195 102.763L58.234 103.104C58.1061 103.516 57.8913 103.878 57.5894 104.19C57.2876 104.499 56.9147 104.741 56.4708 104.915C56.0269 105.085 55.528 105.17 54.974 105.17ZM60.2741 105V96.8182H61.5312V100.376H62.3622L65.3025 96.8182H66.9218L63.6193 100.76L66.9644 105H65.3451L62.6605 101.548H61.5312V105H60.2741ZM71.3177 105.17C70.5791 105.17 69.931 104.995 69.3734 104.643C68.8195 104.292 68.3862 103.8 68.0737 103.168C67.7648 102.536 67.6103 101.797 67.6103 100.952C67.6103 100.099 67.7648 99.3555 68.0737 98.7198C68.3862 98.0842 68.8195 97.5906 69.3734 97.239C69.931 96.8874 70.5791 96.7116 71.3177 96.7116C72.0563 96.7116 72.7026 96.8874 73.2566 97.239C73.8141 97.5906 74.2474 98.0842 74.5563 98.7198C74.8688 99.3555 75.0251 100.099 75.0251 100.952C75.0251 101.797 74.8688 102.536 74.5563 103.168C74.2474 103.8 73.8141 104.292 73.2566 104.643C72.7026 104.995 72.0563 105.17 71.3177 105.17ZM71.3177 104.041C71.8788 104.041 72.3404 103.897 72.7026 103.61C73.0649 103.322 73.333 102.944 73.507 102.475C73.681 102.006 73.768 101.499 73.768 100.952C73.768 100.405 73.681 99.8952 73.507 99.4229C73.333 98.9506 73.0649 98.5689 72.7026 98.2777C72.3404 97.9865 71.8788 97.8409 71.3177 97.8409C70.7566 97.8409 70.295 97.9865 69.9328 98.2777C69.5705 98.5689 69.3024 98.9506 69.1284 99.4229C68.9544 99.8952 68.8674 100.405 68.8674 100.952C68.8674 101.499 68.9544 102.006 69.1284 102.475C69.3024 102.944 69.5705 103.322 69.9328 103.61C70.295 103.897 70.7566 104.041 71.3177 104.041ZM81.4185 103.295L84.2736 96.8182H85.4668L81.9298 105H80.9071L77.4341 96.8182H78.606L81.4185 103.295ZM78.2011 96.8182V105H76.944V96.8182H78.2011ZM84.6358 105V96.8182H85.8929V105H84.6358ZM91.6244 105.17C90.8361 105.17 90.156 104.996 89.5843 104.648C89.0161 104.297 88.5775 103.807 88.2686 103.178C87.9632 102.546 87.8105 101.811 87.8105 100.973C87.8105 100.135 87.9632 99.3963 88.2686 98.7571C88.5775 98.1143 89.0072 97.6136 89.5577 97.255C90.1116 96.8928 90.7579 96.7116 91.4966 96.7116C91.9227 96.7116 92.3435 96.7827 92.759 96.9247C93.1745 97.0668 93.5527 97.2976 93.8936 97.6172C94.2345 97.9332 94.5062 98.3523 94.7086 98.8743C94.911 99.3963 95.0122 100.039 95.0122 100.803V101.335H88.7054V100.249H93.7338C93.7338 99.7869 93.6415 99.375 93.4568 99.0128C93.2757 98.6506 93.0165 98.3647 92.6791 98.1552C92.3453 97.9457 91.9511 97.8409 91.4966 97.8409C90.9959 97.8409 90.5626 97.9652 90.1969 98.2138C89.8347 98.4588 89.5559 98.7784 89.3606 99.1726C89.1653 99.5668 89.0676 99.9893 89.0676 100.44V101.165C89.0676 101.783 89.1741 102.306 89.3872 102.736C89.6038 103.162 89.9039 103.487 90.2874 103.711C90.6709 103.931 91.1166 104.041 91.6244 104.041C91.9547 104.041 92.253 103.995 92.5193 103.903C92.7892 103.807 93.0218 103.665 93.2171 103.477C93.4124 103.285 93.5633 103.047 93.6699 102.763L94.8844 103.104C94.7565 103.516 94.5417 103.878 94.2398 104.19C93.938 104.499 93.5651 104.741 93.1212 104.915C92.6773 105.085 92.1784 105.17 91.6244 105.17ZM102.4 100.334V101.506H97.8833V100.334H102.4ZM98.1816 96.8182V105H96.9245V96.8182H98.1816ZM103.359 96.8182V105H102.102V96.8182H103.359ZM104.781 107.344V103.828H105.463C105.63 103.654 105.774 103.466 105.895 103.263C106.015 103.061 106.12 102.821 106.209 102.544C106.301 102.264 106.379 101.923 106.443 101.522C106.507 101.117 106.564 100.629 106.614 100.057L106.891 96.8182H112.09V103.828H113.347V107.344H112.09V105H106.038V107.344H104.781ZM106.891 103.828H110.833V97.9901H108.063L107.85 100.057C107.761 100.913 107.651 101.66 107.519 102.299C107.388 102.939 107.178 103.448 106.891 103.828ZM115.825 108.068C115.612 108.068 115.422 108.05 115.255 108.015C115.088 107.983 114.973 107.951 114.909 107.919L115.228 106.811C115.534 106.889 115.804 106.918 116.038 106.896C116.272 106.875 116.48 106.77 116.661 106.582C116.846 106.397 117.015 106.097 117.167 105.682L117.402 105.043L114.376 96.8182H115.74L117.998 103.338H118.083L120.342 96.8182H121.706L118.233 106.193C118.076 106.616 117.883 106.966 117.652 107.243C117.421 107.523 117.153 107.731 116.848 107.866C116.546 108.001 116.205 108.068 115.825 108.068ZM126.502 105.17C125.714 105.17 125.034 104.996 124.462 104.648C123.894 104.297 123.455 103.807 123.147 103.178C122.841 102.546 122.688 101.811 122.688 100.973C122.688 100.135 122.841 99.3963 123.147 98.7571C123.455 98.1143 123.885 97.6136 124.436 97.255C124.99 96.8928 125.636 96.7116 126.375 96.7116C126.801 96.7116 127.221 96.7827 127.637 96.9247C128.052 97.0668 128.431 97.2976 128.772 97.6172C129.112 97.9332 129.384 98.3523 129.587 98.8743C129.789 99.3963 129.89 100.039 129.89 100.803V101.335H123.583V100.249H128.612C128.612 99.7869 128.519 99.375 128.335 99.0128C128.154 98.6506 127.894 98.3647 127.557 98.1552C127.223 97.9457 126.829 97.8409 126.375 97.8409C125.874 97.8409 125.441 97.9652 125.075 98.2138C124.713 98.4588 124.434 98.7784 124.239 99.1726C124.043 99.5668 123.946 99.9893 123.946 100.44V101.165C123.946 101.783 124.052 102.306 124.265 102.736C124.482 103.162 124.782 103.487 125.165 103.711C125.549 103.931 125.995 104.041 126.502 104.041C126.833 104.041 127.131 103.995 127.397 103.903C127.667 103.807 127.9 103.665 128.095 103.477C128.29 103.285 128.441 103.047 128.548 102.763L129.762 103.104C129.634 103.516 129.42 103.878 129.118 104.19C128.816 104.499 128.443 104.741 127.999 104.915C127.555 105.085 127.056 105.17 126.502 105.17ZM136.277 103.295L139.132 96.8182H140.325L136.788 105H135.765L132.292 96.8182H133.464L136.277 103.295ZM133.06 96.8182V105H131.802V96.8182H133.06ZM139.494 105V96.8182H140.751V105H139.494ZM146.76 102.912H148.102C148.131 103.281 148.297 103.562 148.603 103.754C148.912 103.945 149.313 104.041 149.807 104.041C150.311 104.041 150.742 103.938 151.101 103.732C151.46 103.523 151.639 103.185 151.639 102.72C151.639 102.447 151.572 102.209 151.437 102.006C151.302 101.8 151.112 101.641 150.867 101.527C150.622 101.413 150.332 101.357 149.998 101.357H148.592V100.227H149.998C150.499 100.227 150.868 100.114 151.106 99.8864C151.348 99.6591 151.469 99.375 151.469 99.0341C151.469 98.6683 151.339 98.3754 151.08 98.1552C150.821 97.9315 150.453 97.8196 149.977 97.8196C149.498 97.8196 149.098 97.9279 148.779 98.1445C148.459 98.3576 148.29 98.6328 148.273 98.9702H146.952C146.966 98.5298 147.101 98.141 147.356 97.8036C147.612 97.4627 147.96 97.1964 148.4 97.0046C148.841 96.8093 149.345 96.7116 149.913 96.7116C150.489 96.7116 150.987 96.8129 151.41 97.0153C151.836 97.2141 152.165 97.4858 152.395 97.8303C152.63 98.1712 152.747 98.5582 152.747 98.9915C152.747 99.4531 152.617 99.826 152.358 100.11C152.099 100.394 151.774 100.597 151.383 100.717V100.803C151.692 100.824 151.96 100.923 152.188 101.101C152.419 101.275 152.598 101.504 152.726 101.788C152.854 102.069 152.917 102.379 152.917 102.72C152.917 103.217 152.784 103.651 152.518 104.02C152.252 104.386 151.886 104.67 151.421 104.872C150.955 105.071 150.425 105.17 149.828 105.17C149.249 105.17 148.731 105.076 148.273 104.888C147.814 104.696 147.451 104.432 147.181 104.094C146.914 103.754 146.774 103.359 146.76 102.912ZM157.091 105.192C156.572 105.192 156.102 105.094 155.679 104.899C155.257 104.7 154.921 104.414 154.673 104.041C154.424 103.665 154.3 103.21 154.3 102.678C154.3 102.209 154.392 101.829 154.577 101.538C154.761 101.243 155.008 101.012 155.317 100.845C155.626 100.678 155.967 100.554 156.34 100.472C156.716 100.387 157.095 100.32 157.474 100.27C157.972 100.206 158.375 100.158 158.684 100.126C158.996 100.091 159.223 100.032 159.365 99.9503C159.511 99.8686 159.584 99.7266 159.584 99.5241V99.4815C159.584 98.956 159.44 98.5476 159.152 98.2564C158.868 97.9652 158.437 97.8196 157.858 97.8196C157.258 97.8196 156.787 97.951 156.446 98.2138C156.106 98.4766 155.866 98.7571 155.727 99.0554L154.534 98.6293C154.747 98.1321 155.031 97.745 155.386 97.468C155.745 97.1875 156.136 96.9922 156.558 96.8821C156.984 96.7685 157.403 96.7116 157.815 96.7116C158.078 96.7116 158.38 96.7436 158.721 96.8075C159.065 96.8679 159.397 96.994 159.717 97.1857C160.04 97.3775 160.308 97.6669 160.521 98.054C160.734 98.4411 160.841 98.9595 160.841 99.6094V105H159.584V103.892H159.52C159.435 104.07 159.293 104.26 159.094 104.462C158.895 104.664 158.63 104.837 158.3 104.979C157.97 105.121 157.567 105.192 157.091 105.192ZM157.283 104.062C157.78 104.062 158.199 103.965 158.54 103.77C158.884 103.574 159.144 103.322 159.318 103.013C159.495 102.704 159.584 102.379 159.584 102.038V100.888C159.531 100.952 159.413 101.01 159.232 101.064C159.055 101.113 158.849 101.158 158.614 101.197C158.384 101.232 158.158 101.264 157.938 101.293C157.721 101.317 157.545 101.339 157.411 101.357C157.084 101.399 156.778 101.468 156.494 101.564C156.214 101.657 155.987 101.797 155.813 101.985C155.642 102.17 155.557 102.422 155.557 102.741C155.557 103.178 155.718 103.509 156.042 103.732C156.368 103.952 156.782 104.062 157.283 104.062ZM163.135 105V96.8182H169.57V105H168.313V97.9901H164.393V105H163.135ZM172.383 108.068C172.17 108.068 171.98 108.05 171.813 108.015C171.646 107.983 171.53 107.951 171.466 107.919L171.786 106.811C172.091 106.889 172.361 106.918 172.596 106.896C172.83 106.875 173.038 106.77 173.219 106.582C173.404 106.397 173.572 106.097 173.725 105.682L173.959 105.043L170.934 96.8182H172.297L174.556 103.338H174.641L176.9 96.8182H178.263L174.79 106.193C174.634 106.616 174.44 106.966 174.21 107.243C173.979 107.523 173.711 107.731 173.405 107.866C173.103 108.001 172.763 108.068 172.383 108.068ZM182.953 105.17C182.186 105.17 181.526 104.989 180.972 104.627C180.418 104.265 179.992 103.766 179.693 103.13C179.395 102.495 179.246 101.768 179.246 100.952C179.246 100.121 179.399 99.3874 179.704 98.7518C180.013 98.1126 180.443 97.6136 180.993 97.255C181.547 96.8928 182.193 96.7116 182.932 96.7116C183.507 96.7116 184.026 96.8182 184.488 97.0312C184.949 97.2443 185.327 97.5426 185.622 97.9261C185.917 98.3097 186.1 98.7571 186.171 99.2685H184.914C184.818 98.8956 184.605 98.5653 184.274 98.2777C183.948 97.9865 183.507 97.8409 182.953 97.8409C182.463 97.8409 182.034 97.9687 181.664 98.2244C181.299 98.4766 181.013 98.8335 180.807 99.2951C180.604 99.7532 180.503 100.291 180.503 100.909C180.503 101.541 180.603 102.092 180.801 102.56C181.004 103.029 181.288 103.393 181.654 103.652C182.023 103.912 182.456 104.041 182.953 104.041C183.28 104.041 183.577 103.984 183.843 103.871C184.109 103.757 184.335 103.594 184.519 103.381C184.704 103.168 184.836 102.912 184.914 102.614H186.171C186.1 103.097 185.924 103.532 185.643 103.919C185.366 104.302 184.999 104.608 184.541 104.835C184.086 105.059 183.557 105.17 182.953 105.17ZM187.364 97.9901V96.8182H194.012V97.9901H191.327V105H190.07V97.9901H187.364ZM197.102 103.146L201.044 96.8182H202.493V105H201.236V98.6719L197.316 105H195.845V96.8182H197.102V103.146ZM203.682 97.9901V96.8182H210.33V97.9901H207.645V105H206.388V97.9901H203.682ZM213.25 99.7798H215.594C216.553 99.7798 217.286 100.023 217.794 100.51C218.302 100.996 218.556 101.612 218.556 102.358C218.556 102.848 218.442 103.294 218.215 103.695C217.988 104.093 217.654 104.411 217.213 104.648C216.773 104.883 216.233 105 215.594 105H212.164V96.8182H213.421V103.828H215.594C216.091 103.828 216.5 103.697 216.819 103.434C217.139 103.171 217.299 102.834 217.299 102.422C217.299 101.989 217.139 101.635 216.819 101.362C216.5 101.088 216.091 100.952 215.594 100.952H213.25V99.7798ZM224.688 105V96.8182H231.123V105H229.866V97.9901H225.945V105H224.688ZM236.742 105.17C236.004 105.17 235.356 104.995 234.798 104.643C234.244 104.292 233.811 103.8 233.499 103.168C233.19 102.536 233.035 101.797 233.035 100.952C233.035 100.099 233.19 99.3555 233.499 98.7198C233.811 98.0842 234.244 97.5906 234.798 97.239C235.356 96.8874 236.004 96.7116 236.742 96.7116C237.481 96.7116 238.127 96.8874 238.681 97.239C239.239 97.5906 239.672 98.0842 239.981 98.7198C240.294 99.3555 240.45 100.099 240.45 100.952C240.45 101.797 240.294 102.536 239.981 103.168C239.672 103.8 239.239 104.292 238.681 104.643C238.127 104.995 237.481 105.17 236.742 105.17ZM236.742 104.041C237.304 104.041 237.765 103.897 238.127 103.61C238.49 103.322 238.758 102.944 238.932 102.475C239.106 102.006 239.193 101.499 239.193 100.952C239.193 100.405 239.106 99.8952 238.932 99.4229C238.758 98.9506 238.49 98.5689 238.127 98.2777C237.765 97.9865 237.304 97.8409 236.742 97.8409C236.181 97.8409 235.72 97.9865 235.358 98.2777C234.995 98.5689 234.727 98.9506 234.553 99.4229C234.379 99.8952 234.292 100.405 234.292 100.952C234.292 101.499 234.379 102.006 234.553 102.475C234.727 102.944 234.995 103.322 235.358 103.61C235.72 103.897 236.181 104.041 236.742 104.041ZM241.644 105V103.828H241.943C242.188 103.828 242.392 103.78 242.555 103.684C242.719 103.585 242.85 103.413 242.949 103.168C243.052 102.919 243.131 102.575 243.184 102.134C243.241 101.69 243.281 101.126 243.306 100.44L243.455 96.8182H248.91V105H247.653V97.9901H244.649L244.521 100.909C244.492 101.58 244.432 102.172 244.34 102.683C244.251 103.191 244.114 103.617 243.93 103.961C243.748 104.306 243.507 104.565 243.205 104.739C242.903 104.913 242.525 105 242.071 105H241.644ZM256.692 100.334V101.506H252.175V100.334H256.692ZM252.474 96.8182V105H251.216V96.8182H252.474ZM257.651 96.8182V105H256.394V96.8182H257.651ZM260.464 108.068C260.251 108.068 260.061 108.05 259.894 108.015C259.727 107.983 259.611 107.951 259.547 107.919L259.867 106.811C260.172 106.889 260.442 106.918 260.677 106.896C260.911 106.875 261.119 106.77 261.3 106.582C261.485 106.397 261.653 106.097 261.806 105.682L262.04 105.043L259.015 96.8182H260.378L262.637 103.338H262.722L264.981 96.8182H266.344L262.871 106.193C262.715 106.616 262.522 106.966 262.291 107.243C262.06 107.523 261.792 107.731 261.486 107.866C261.185 108.001 260.844 108.068 260.464 108.068ZM271.924 100.398V101.57H267.599V100.398H271.924ZM268.664 96.8182V105H267.407V96.8182H268.664ZM274.438 105.17C273.7 105.17 273.052 104.995 272.494 104.643C271.94 104.292 271.507 103.8 271.194 103.168C270.885 102.536 270.731 101.797 270.731 100.952C270.731 100.099 270.885 99.3555 271.194 98.7198C271.507 98.0842 271.94 97.5906 272.494 97.239C273.052 96.8874 273.7 96.7116 274.438 96.7116C275.177 96.7116 275.823 96.8874 276.377 97.239C276.935 97.5906 277.368 98.0842 277.677 98.7198C277.989 99.3555 278.146 100.099 278.146 100.952C278.146 101.797 277.989 102.536 277.677 103.168C277.368 103.8 276.935 104.292 276.377 104.643C275.823 104.995 275.177 105.17 274.438 105.17ZM274.438 104.041C274.999 104.041 275.461 103.897 275.823 103.61C276.185 103.322 276.454 102.944 276.628 102.475C276.802 102.006 276.889 101.499 276.889 100.952C276.889 100.405 276.802 99.8952 276.628 99.4229C276.454 98.9506 276.185 98.5689 275.823 98.2777C275.461 97.9865 274.999 97.8409 274.438 97.8409C273.877 97.8409 273.416 97.9865 273.053 98.2777C272.691 98.5689 272.423 98.9506 272.249 99.4229C272.075 99.8952 271.988 100.405 271.988 100.952C271.988 101.499 272.075 102.006 272.249 102.475C272.423 102.944 272.691 103.322 273.053 103.61C273.416 103.897 273.877 104.041 274.438 104.041ZM55.6139 125.344V121.828H56.2957C56.4626 121.654 56.6064 121.466 56.7272 121.263C56.8479 121.061 56.9527 120.821 57.0415 120.544C57.1338 120.264 57.2119 119.923 57.2758 119.522C57.3398 119.117 57.3966 118.629 57.4463 118.057L57.7233 114.818H62.9221V121.828H64.1792V125.344H62.9221V123H56.871V125.344H55.6139ZM57.7233 121.828H61.665V115.99H58.8952L58.6821 118.057C58.5933 118.913 58.4832 119.66 58.3518 120.299C58.2204 120.939 58.0109 121.448 57.7233 121.828ZM67.1049 121.146L71.0467 114.818H72.4956V123H71.2385V116.672L67.318 123H65.8478V114.818H67.1049V121.146ZM77.2057 123.192C76.6872 123.192 76.2167 123.094 75.7941 122.899C75.3715 122.7 75.036 122.414 74.7874 122.041C74.5388 121.665 74.4145 121.21 74.4145 120.678C74.4145 120.209 74.5068 119.829 74.6915 119.538C74.8762 119.243 75.123 119.012 75.4319 118.845C75.7409 118.678 76.0818 118.554 76.4546 118.472C76.8311 118.387 77.2093 118.32 77.5892 118.27C78.0864 118.206 78.4894 118.158 78.7984 118.126C79.1109 118.091 79.3382 118.032 79.4802 117.95C79.6258 117.869 79.6986 117.727 79.6986 117.524V117.482C79.6986 116.956 79.5548 116.548 79.2671 116.256C78.983 115.965 78.5516 115.82 77.9727 115.82C77.3726 115.82 76.9021 115.951 76.5612 116.214C76.2203 116.477 75.9806 116.757 75.8421 117.055L74.6489 116.629C74.8619 116.132 75.146 115.745 75.5012 115.468C75.8598 115.187 76.2504 114.992 76.673 114.882C77.0992 114.768 77.5182 114.712 77.9301 114.712C78.1929 114.712 78.4948 114.744 78.8357 114.808C79.1801 114.868 79.5122 114.994 79.8318 115.186C80.1549 115.377 80.423 115.667 80.6361 116.054C80.8492 116.441 80.9557 116.96 80.9557 117.609V123H79.6986V121.892H79.6347C79.5494 122.07 79.4074 122.26 79.2085 122.462C79.0097 122.664 78.7451 122.837 78.4149 122.979C78.0846 123.121 77.6816 123.192 77.2057 123.192ZM77.3975 122.062C77.8946 122.062 78.3137 121.965 78.6546 121.77C78.999 121.574 79.2583 121.322 79.4323 121.013C79.6098 120.704 79.6986 120.379 79.6986 120.038V118.888C79.6453 118.952 79.5281 119.01 79.347 119.064C79.1695 119.113 78.9635 119.158 78.7291 119.197C78.4983 119.232 78.2728 119.264 78.0526 119.293C77.836 119.317 77.6602 119.339 77.5253 119.357C77.1986 119.399 76.8932 119.468 76.6091 119.564C76.3286 119.657 76.1013 119.797 75.9273 119.985C75.7568 120.17 75.6716 120.422 75.6716 120.741C75.6716 121.178 75.8332 121.509 76.1563 121.732C76.483 121.952 76.8968 122.062 77.3975 122.062ZM88.2999 114.818V115.99H84.5073V123H83.2502V114.818H88.2999ZM95.6108 118.334V119.506H91.0938V118.334H95.6108ZM91.392 114.818V123H90.1349V114.818H91.392ZM96.5696 114.818V123H95.3125V114.818H96.5696ZM102.189 123.17C101.451 123.17 100.803 122.995 100.245 122.643C99.6911 122.292 99.2578 121.8 98.9453 121.168C98.6364 120.536 98.4819 119.797 98.4819 118.952C98.4819 118.099 98.6364 117.355 98.9453 116.72C99.2578 116.084 99.6911 115.591 100.245 115.239C100.803 114.887 101.451 114.712 102.189 114.712C102.928 114.712 103.574 114.887 104.128 115.239C104.686 115.591 105.119 116.084 105.428 116.72C105.74 117.355 105.897 118.099 105.897 118.952C105.897 119.797 105.74 120.536 105.428 121.168C105.119 121.8 104.686 122.292 104.128 122.643C103.574 122.995 102.928 123.17 102.189 123.17ZM102.189 122.041C102.75 122.041 103.212 121.897 103.574 121.61C103.936 121.322 104.205 120.944 104.379 120.475C104.553 120.006 104.64 119.499 104.64 118.952C104.64 118.405 104.553 117.895 104.379 117.423C104.205 116.951 103.936 116.569 103.574 116.278C103.212 115.987 102.75 115.841 102.189 115.841C101.628 115.841 101.167 115.987 100.804 116.278C100.442 116.569 100.174 116.951 100 117.423C99.826 117.895 99.739 118.405 99.739 118.952C99.739 119.499 99.826 120.006 100 120.475C100.174 120.944 100.442 121.322 100.804 121.61C101.167 121.897 101.628 122.041 102.189 122.041ZM111.139 123.17C110.372 123.17 109.712 122.989 109.158 122.627C108.604 122.265 108.178 121.766 107.88 121.13C107.581 120.495 107.432 119.768 107.432 118.952C107.432 118.121 107.585 117.387 107.89 116.752C108.199 116.113 108.629 115.614 109.179 115.255C109.733 114.893 110.38 114.712 111.118 114.712C111.693 114.712 112.212 114.818 112.674 115.031C113.135 115.244 113.513 115.543 113.808 115.926C114.103 116.31 114.286 116.757 114.357 117.268H113.1C113.004 116.896 112.791 116.565 112.46 116.278C112.134 115.987 111.693 115.841 111.139 115.841C110.649 115.841 110.22 115.969 109.85 116.224C109.485 116.477 109.199 116.833 108.993 117.295C108.79 117.753 108.689 118.291 108.689 118.909C108.689 119.541 108.789 120.092 108.987 120.56C109.19 121.029 109.474 121.393 109.84 121.652C110.209 121.912 110.642 122.041 111.139 122.041C111.466 122.041 111.763 121.984 112.029 121.871C112.295 121.757 112.521 121.594 112.706 121.381C112.89 121.168 113.022 120.912 113.1 120.614H114.357C114.286 121.097 114.11 121.532 113.829 121.919C113.552 122.302 113.185 122.608 112.727 122.835C112.272 123.059 111.743 123.17 111.139 123.17ZM115.55 115.99V114.818H122.198V115.99H119.513V123H118.256V115.99H115.55ZM125.289 121.146L129.23 114.818H130.679V123H129.422V116.672L125.502 123H124.031V114.818H125.289V121.146ZM132.982 123V114.818H134.239V118.376H135.07L138.01 114.818H139.629L136.327 118.76L139.672 123H138.053L135.368 119.548H134.239V123H132.982ZM141.848 126.068C141.635 126.068 141.445 126.05 141.278 126.015C141.111 125.983 140.996 125.951 140.932 125.919L141.251 124.811C141.557 124.889 141.827 124.918 142.061 124.896C142.295 124.875 142.503 124.77 142.684 124.582C142.869 124.397 143.038 124.097 143.19 123.682L143.425 123.043L140.399 114.818H141.763L144.021 121.338H144.106L146.365 114.818H147.729L144.256 124.193C144.099 124.616 143.906 124.966 143.675 125.243C143.444 125.523 143.176 125.731 142.871 125.866C142.569 126.001 142.228 126.068 141.848 126.068ZM156.93 123.17C156.163 123.17 155.503 122.989 154.949 122.627C154.395 122.265 153.969 121.766 153.671 121.13C153.372 120.495 153.223 119.768 153.223 118.952C153.223 118.121 153.376 117.387 153.681 116.752C153.99 116.113 154.42 115.614 154.97 115.255C155.524 114.893 156.171 114.712 156.909 114.712C157.484 114.712 158.003 114.818 158.465 115.031C158.926 115.244 159.304 115.543 159.599 115.926C159.894 116.31 160.077 116.757 160.148 117.268H158.891C158.795 116.896 158.582 116.565 158.252 116.278C157.925 115.987 157.484 115.841 156.93 115.841C156.44 115.841 156.011 115.969 155.641 116.224C155.276 116.477 154.99 116.833 154.784 117.295C154.581 117.753 154.48 118.291 154.48 118.909C154.48 119.541 154.58 120.092 154.778 120.56C154.981 121.029 155.265 121.393 155.631 121.652C156 121.912 156.433 122.041 156.93 122.041C157.257 122.041 157.554 121.984 157.82 121.871C158.086 121.757 158.312 121.594 158.497 121.381C158.681 121.168 158.813 120.912 158.891 120.614H160.148C160.077 121.097 159.901 121.532 159.62 121.919C159.343 122.302 158.976 122.608 158.518 122.835C158.063 123.059 157.534 123.17 156.93 123.17ZM163.243 121.146L167.184 114.818H168.633V123H167.376V116.672L163.456 123H161.986V114.818H163.243V121.146ZM174.26 123.17C173.493 123.17 172.832 122.989 172.278 122.627C171.724 122.265 171.298 121.766 171 121.13C170.701 120.495 170.552 119.768 170.552 118.952C170.552 118.121 170.705 117.387 171.01 116.752C171.319 116.113 171.749 115.614 172.299 115.255C172.853 114.893 173.5 114.712 174.238 114.712C174.814 114.712 175.332 114.818 175.794 115.031C176.255 115.244 176.634 115.543 176.928 115.926C177.223 116.31 177.406 116.757 177.477 117.268H176.22C176.124 116.896 175.911 116.565 175.581 116.278C175.254 115.987 174.814 115.841 174.26 115.841C173.77 115.841 173.34 115.969 172.971 116.224C172.605 116.477 172.319 116.833 172.113 117.295C171.911 117.753 171.809 118.291 171.809 118.909C171.809 119.541 171.909 120.092 172.108 120.56C172.31 121.029 172.594 121.393 172.96 121.652C173.329 121.912 173.762 122.041 174.26 122.041C174.586 122.041 174.883 121.984 175.149 121.871C175.415 121.757 175.641 121.594 175.826 121.381C176.01 121.168 176.142 120.912 176.22 120.614H177.477C177.406 121.097 177.23 121.532 176.95 121.919C176.673 122.302 176.305 122.608 175.847 122.835C175.392 123.059 174.863 123.17 174.26 123.17ZM178.67 115.99V114.818H185.318V115.99H182.633V123H181.376V115.99H178.67ZM190.157 123.17C189.369 123.17 188.689 122.996 188.117 122.648C187.549 122.297 187.11 121.807 186.801 121.178C186.496 120.546 186.343 119.811 186.343 118.973C186.343 118.135 186.496 117.396 186.801 116.757C187.11 116.114 187.54 115.614 188.09 115.255C188.644 114.893 189.291 114.712 190.029 114.712C190.455 114.712 190.876 114.783 191.292 114.925C191.707 115.067 192.085 115.298 192.426 115.617C192.767 115.933 193.039 116.352 193.241 116.874C193.444 117.396 193.545 118.039 193.545 118.803V119.335H187.238V118.249H192.267C192.267 117.787 192.174 117.375 191.99 117.013C191.808 116.651 191.549 116.365 191.212 116.155C190.878 115.946 190.484 115.841 190.029 115.841C189.529 115.841 189.095 115.965 188.73 116.214C188.367 116.459 188.089 116.778 187.893 117.173C187.698 117.567 187.6 117.989 187.6 118.44V119.165C187.6 119.783 187.707 120.306 187.92 120.736C188.137 121.162 188.437 121.487 188.82 121.711C189.204 121.931 189.649 122.041 190.157 122.041C190.487 122.041 190.786 121.995 191.052 121.903C191.322 121.807 191.555 121.665 191.75 121.477C191.945 121.285 192.096 121.047 192.203 120.763L193.417 121.104C193.289 121.516 193.074 121.878 192.773 122.19C192.471 122.499 192.098 122.741 191.654 122.915C191.21 123.085 190.711 123.17 190.157 123.17ZM199.932 121.295L202.787 114.818H203.98L200.443 123H199.42L195.947 114.818H197.119L199.932 121.295ZM196.714 114.818V123H195.457V114.818H196.714ZM203.149 123V114.818H204.406V123H203.149ZM207.794 117.78H210.138C211.096 117.78 211.83 118.023 212.338 118.51C212.845 118.996 213.099 119.612 213.099 120.358C213.099 120.848 212.986 121.294 212.758 121.695C212.531 122.093 212.197 122.411 211.757 122.648C211.317 122.883 210.777 123 210.138 123H206.707V114.818H207.964V121.828H210.138C210.635 121.828 211.043 121.697 211.363 121.434C211.682 121.171 211.842 120.834 211.842 120.422C211.842 119.989 211.682 119.635 211.363 119.362C211.043 119.088 210.635 118.952 210.138 118.952H207.794V117.78ZM214.399 123V114.818H215.656V123H214.399ZM222.176 123V114.818H228.611V123H227.354V115.99H223.433V123H222.176ZM234.23 123.17C233.492 123.17 232.844 122.995 232.286 122.643C231.732 122.292 231.299 121.8 230.986 121.168C230.677 120.536 230.523 119.797 230.523 118.952C230.523 118.099 230.677 117.355 230.986 116.72C231.299 116.084 231.732 115.591 232.286 115.239C232.844 114.887 233.492 114.712 234.23 114.712C234.969 114.712 235.615 114.887 236.169 115.239C236.727 115.591 237.16 116.084 237.469 116.72C237.781 117.355 237.938 118.099 237.938 118.952C237.938 119.797 237.781 120.536 237.469 121.168C237.16 121.8 236.727 122.292 236.169 122.643C235.615 122.995 234.969 123.17 234.23 123.17ZM234.23 122.041C234.791 122.041 235.253 121.897 235.615 121.61C235.977 121.322 236.246 120.944 236.42 120.475C236.594 120.006 236.681 119.499 236.681 118.952C236.681 118.405 236.594 117.895 236.42 117.423C236.246 116.951 235.977 116.569 235.615 116.278C235.253 115.987 234.791 115.841 234.23 115.841C233.669 115.841 233.208 115.987 232.845 116.278C232.483 116.569 232.215 116.951 232.041 117.423C231.867 117.895 231.78 118.405 231.78 118.952C231.78 119.499 231.867 120.006 232.041 120.475C232.215 120.944 232.483 121.322 232.845 121.61C233.208 121.897 233.669 122.041 234.23 122.041ZM243.18 123.17C242.413 123.17 241.753 122.989 241.199 122.627C240.645 122.265 240.219 121.766 239.921 121.13C239.622 120.495 239.473 119.768 239.473 118.952C239.473 118.121 239.626 117.387 239.931 116.752C240.24 116.113 240.67 115.614 241.22 115.255C241.774 114.893 242.421 114.712 243.159 114.712C243.734 114.712 244.253 114.818 244.715 115.031C245.176 115.244 245.554 115.543 245.849 115.926C246.144 116.31 246.327 116.757 246.398 117.268H245.141C245.045 116.896 244.832 116.565 244.502 116.278C244.175 115.987 243.734 115.841 243.18 115.841C242.69 115.841 242.261 115.969 241.891 116.224C241.526 116.477 241.24 116.833 241.034 117.295C240.831 117.753 240.73 118.291 240.73 118.909C240.73 119.541 240.83 120.092 241.028 120.56C241.231 121.029 241.515 121.393 241.881 121.652C242.25 121.912 242.683 122.041 243.18 122.041C243.507 122.041 243.804 121.984 244.07 121.871C244.336 121.757 244.562 121.594 244.747 121.381C244.931 121.168 245.063 120.912 245.141 120.614H246.398C246.327 121.097 246.151 121.532 245.87 121.919C245.593 122.302 245.226 122.608 244.768 122.835C244.313 123.059 243.784 123.17 243.18 123.17ZM247.511 123V121.828H247.809C248.054 121.828 248.259 121.78 248.422 121.684C248.585 121.585 248.717 121.413 248.816 121.168C248.919 120.919 248.997 120.575 249.051 120.134C249.107 119.69 249.148 119.126 249.173 118.44L249.322 114.818H254.777V123H253.52V115.99H250.515L250.388 118.909C250.359 119.58 250.299 120.172 250.206 120.683C250.118 121.191 249.981 121.617 249.796 121.961C249.615 122.306 249.374 122.565 249.072 122.739C248.77 122.913 248.392 123 247.937 123H247.511ZM260.514 123.17C259.725 123.17 259.045 122.996 258.473 122.648C257.905 122.297 257.467 121.807 257.158 121.178C256.852 120.546 256.7 119.811 256.7 118.973C256.7 118.135 256.852 117.396 257.158 116.757C257.467 116.114 257.896 115.614 258.447 115.255C259.001 114.893 259.647 114.712 260.386 114.712C260.812 114.712 261.233 114.783 261.648 114.925C262.064 115.067 262.442 115.298 262.783 115.617C263.124 115.933 263.395 116.352 263.598 116.874C263.8 117.396 263.901 118.039 263.901 118.803V119.335H257.595V118.249H262.623C262.623 117.787 262.531 117.375 262.346 117.013C262.165 116.651 261.906 116.365 261.568 116.155C261.234 115.946 260.84 115.841 260.386 115.841C259.885 115.841 259.452 115.965 259.086 116.214C258.724 116.459 258.445 116.778 258.25 117.173C258.054 117.567 257.957 117.989 257.957 118.44V119.165C257.957 119.783 258.063 120.306 258.276 120.736C258.493 121.162 258.793 121.487 259.177 121.711C259.56 121.931 260.006 122.041 260.514 122.041C260.844 122.041 261.142 121.995 261.408 121.903C261.678 121.807 261.911 121.665 262.106 121.477C262.302 121.285 262.453 121.047 262.559 120.763L263.774 121.104C263.646 121.516 263.431 121.878 263.129 122.19C262.827 122.499 262.454 122.741 262.01 122.915C261.566 123.085 261.068 123.17 260.514 123.17ZM89.7408 138.912H91.0831C91.1115 139.281 91.2784 139.562 91.5838 139.754C91.8928 139.945 92.294 140.041 92.7876 140.041C93.2919 140.041 93.7234 139.938 94.082 139.732C94.4407 139.523 94.62 139.185 94.62 138.72C94.62 138.447 94.5526 138.209 94.4176 138.006C94.2827 137.8 94.0927 137.641 93.8477 137.527C93.6026 137.413 93.3132 137.357 92.9794 137.357H91.5732V136.227H92.9794C93.4801 136.227 93.8494 136.114 94.0874 135.886C94.3288 135.659 94.4496 135.375 94.4496 135.034C94.4496 134.668 94.32 134.375 94.0607 134.155C93.8015 133.931 93.4339 133.82 92.9581 133.82C92.4787 133.82 92.0792 133.928 91.7596 134.145C91.44 134.358 91.2713 134.633 91.2536 134.97H89.9325C89.9467 134.53 90.0817 134.141 90.3374 133.804C90.593 133.463 90.9411 133.196 91.3814 133.005C91.8217 132.809 92.326 132.712 92.8942 132.712C93.4695 132.712 93.9684 132.813 94.391 133.015C94.8171 133.214 95.1456 133.486 95.3764 133.83C95.6108 134.171 95.728 134.558 95.728 134.991C95.728 135.453 95.5984 135.826 95.3391 136.11C95.0799 136.394 94.755 136.597 94.3643 136.717V136.803C94.6733 136.824 94.9414 136.923 95.1687 137.101C95.3995 137.275 95.5788 137.504 95.7067 137.788C95.8345 138.069 95.8984 138.379 95.8984 138.72C95.8984 139.217 95.7653 139.651 95.4989 140.02C95.2326 140.386 94.8668 140.67 94.4016 140.872C93.9364 141.071 93.4055 141.17 92.8089 141.17C92.2301 141.17 91.7116 141.076 91.2536 140.888C90.7955 140.696 90.4315 140.432 90.1616 140.094C89.8952 139.754 89.755 139.359 89.7408 138.912ZM100.072 141.192C99.5534 141.192 99.0829 141.094 98.6603 140.899C98.2377 140.7 97.9022 140.414 97.6536 140.041C97.405 139.665 97.2807 139.21 97.2807 138.678C97.2807 138.209 97.373 137.829 97.5577 137.538C97.7424 137.243 97.9892 137.012 98.2981 136.845C98.6071 136.678 98.948 136.554 99.3208 136.472C99.6973 136.387 100.075 136.32 100.455 136.27C100.953 136.206 101.356 136.158 101.665 136.126C101.977 136.091 102.204 136.032 102.346 135.95C102.492 135.869 102.565 135.727 102.565 135.524V135.482C102.565 134.956 102.421 134.548 102.133 134.256C101.849 133.965 101.418 133.82 100.839 133.82C100.239 133.82 99.7683 133.951 99.4274 134.214C99.0865 134.477 98.8468 134.757 98.7083 135.055L97.5151 134.629C97.7282 134.132 98.0123 133.745 98.3674 133.468C98.726 133.187 99.1167 132.992 99.5392 132.882C99.9654 132.768 100.384 132.712 100.796 132.712C101.059 132.712 101.361 132.744 101.702 132.808C102.046 132.868 102.378 132.994 102.698 133.186C103.021 133.377 103.289 133.667 103.502 134.054C103.715 134.441 103.822 134.96 103.822 135.609V141H102.565V139.892H102.501C102.416 140.07 102.274 140.26 102.075 140.462C101.876 140.664 101.611 140.837 101.281 140.979C100.951 141.121 100.548 141.192 100.072 141.192ZM100.264 140.062C100.761 140.062 101.18 139.965 101.521 139.77C101.865 139.574 102.124 139.322 102.298 139.013C102.476 138.704 102.565 138.379 102.565 138.038V136.888C102.512 136.952 102.394 137.01 102.213 137.064C102.036 137.113 101.83 137.158 101.595 137.197C101.365 137.232 101.139 137.264 100.919 137.293C100.702 137.317 100.526 137.339 100.392 137.357C100.065 137.399 99.7594 137.468 99.4753 137.564C99.1948 137.657 98.9675 137.797 98.7935 137.985C98.623 138.17 98.5378 138.422 98.5378 138.741C98.5378 139.178 98.6994 139.509 99.0225 139.732C99.3493 139.952 99.763 140.062 100.264 140.062ZM106.116 141V132.818H109.462C110.342 132.818 111.042 133.017 111.56 133.415C112.079 133.812 112.338 134.338 112.338 134.991C112.338 135.489 112.191 135.874 111.896 136.147C111.601 136.417 111.223 136.6 110.761 136.696C111.063 136.739 111.356 136.845 111.64 137.016C111.928 137.186 112.166 137.42 112.354 137.719C112.542 138.013 112.636 138.376 112.636 138.805C112.636 139.224 112.53 139.599 112.317 139.929C112.104 140.26 111.798 140.521 111.4 140.712C111.003 140.904 110.527 141 109.973 141H106.116ZM107.31 139.849H109.973C110.406 139.849 110.745 139.746 110.99 139.54C111.235 139.335 111.358 139.054 111.358 138.699C111.358 138.276 111.235 137.944 110.99 137.703C110.745 137.458 110.406 137.335 109.973 137.335H107.31V139.849ZM107.31 136.249H109.462C109.799 136.249 110.088 136.202 110.33 136.11C110.571 136.014 110.756 135.879 110.884 135.705C111.015 135.528 111.081 135.318 111.081 135.077C111.081 134.732 110.937 134.462 110.649 134.267C110.362 134.068 109.966 133.969 109.462 133.969H107.31V136.249ZM117.97 141.17C117.181 141.17 116.501 140.996 115.93 140.648C115.361 140.297 114.923 139.807 114.614 139.178C114.308 138.546 114.156 137.811 114.156 136.973C114.156 136.135 114.308 135.396 114.614 134.757C114.923 134.114 115.352 133.614 115.903 133.255C116.457 132.893 117.103 132.712 117.842 132.712C118.268 132.712 118.689 132.783 119.104 132.925C119.52 133.067 119.898 133.298 120.239 133.617C120.58 133.933 120.851 134.352 121.054 134.874C121.256 135.396 121.357 136.039 121.357 136.803V137.335H115.051V136.249H120.079C120.079 135.787 119.987 135.375 119.802 135.013C119.621 134.651 119.362 134.365 119.024 134.155C118.691 133.946 118.296 133.841 117.842 133.841C117.341 133.841 116.908 133.965 116.542 134.214C116.18 134.459 115.901 134.778 115.706 135.173C115.51 135.567 115.413 135.989 115.413 136.44V137.165C115.413 137.783 115.519 138.306 115.732 138.736C115.949 139.162 116.249 139.487 116.633 139.711C117.016 139.931 117.462 140.041 117.97 140.041C118.3 140.041 118.598 139.995 118.865 139.903C119.134 139.807 119.367 139.665 119.562 139.477C119.758 139.285 119.909 139.047 120.015 138.763L121.23 139.104C121.102 139.516 120.887 139.878 120.585 140.19C120.283 140.499 119.91 140.741 119.466 140.915C119.023 141.085 118.524 141.17 117.97 141.17ZM123.27 144.068V132.818H124.484V134.118H124.633C124.726 133.976 124.854 133.795 125.017 133.575C125.184 133.351 125.422 133.152 125.731 132.978C126.043 132.8 126.466 132.712 126.998 132.712C127.687 132.712 128.295 132.884 128.82 133.228C129.346 133.573 129.756 134.061 130.051 134.693C130.345 135.325 130.493 136.071 130.493 136.93C130.493 137.797 130.345 138.548 130.051 139.184C129.756 139.816 129.347 140.306 128.825 140.654C128.303 140.998 127.702 141.17 127.02 141.17C126.494 141.17 126.073 141.083 125.757 140.909C125.441 140.732 125.198 140.531 125.028 140.308C124.857 140.08 124.726 139.892 124.633 139.743H124.527V144.068H123.27ZM124.506 136.909C124.506 137.527 124.596 138.072 124.777 138.544C124.958 139.013 125.223 139.381 125.571 139.647C125.919 139.91 126.345 140.041 126.849 140.041C127.375 140.041 127.813 139.903 128.165 139.626C128.52 139.345 128.786 138.969 128.964 138.496C129.145 138.021 129.236 137.491 129.236 136.909C129.236 136.334 129.147 135.815 128.969 135.354C128.795 134.888 128.531 134.521 128.176 134.251C127.824 133.978 127.382 133.841 126.849 133.841C126.338 133.841 125.908 133.971 125.56 134.23C125.212 134.485 124.949 134.844 124.772 135.306C124.594 135.764 124.506 136.298 124.506 136.909ZM132.41 132.818H133.667V139.828H136.757V132.818H138.014V139.828H141.104V132.818H142.361V141H132.41V132.818ZM148.087 141.17C147.298 141.17 146.618 140.996 146.047 140.648C145.479 140.297 145.04 139.807 144.731 139.178C144.426 138.546 144.273 137.811 144.273 136.973C144.273 136.135 144.426 135.396 144.731 134.757C145.04 134.114 145.47 133.614 146.02 133.255C146.574 132.893 147.22 132.712 147.959 132.712C148.385 132.712 148.806 132.783 149.221 132.925C149.637 133.067 150.015 133.298 150.356 133.617C150.697 133.933 150.969 134.352 151.171 134.874C151.373 135.396 151.475 136.039 151.475 136.803V137.335H145.168V136.249H150.196C150.196 135.787 150.104 135.375 149.919 135.013C149.738 134.651 149.479 134.365 149.142 134.155C148.808 133.946 148.414 133.841 147.959 133.841C147.458 133.841 147.025 133.965 146.659 134.214C146.297 134.459 146.018 134.778 145.823 135.173C145.628 135.567 145.53 135.989 145.53 136.44V137.165C145.53 137.783 145.637 138.306 145.85 138.736C146.066 139.162 146.366 139.487 146.75 139.711C147.133 139.931 147.579 140.041 148.087 140.041C148.417 140.041 148.715 139.995 148.982 139.903C149.252 139.807 149.484 139.665 149.68 139.477C149.875 139.285 150.026 139.047 150.132 138.763L151.347 139.104C151.219 139.516 151.004 139.878 150.702 140.19C150.4 140.499 150.028 140.741 149.584 140.915C149.14 141.085 148.641 141.17 148.087 141.17ZM158.863 136.334V137.506H154.346V136.334H158.863ZM154.644 132.818V141H153.387V132.818H154.644ZM159.822 132.818V141H158.564V132.818H159.822ZM163.374 139.146L167.316 132.818H168.765V141H167.508V134.672L163.588 141H162.117V132.818H163.374V139.146ZM175.989 141V133.969H173.816C173.326 133.969 172.941 134.082 172.66 134.31C172.38 134.537 172.239 134.849 172.239 135.247C172.239 135.638 172.366 135.945 172.618 136.169C172.873 136.392 173.223 136.504 173.667 136.504H176.309V137.676H173.667C173.113 137.676 172.635 137.578 172.234 137.383C171.833 137.188 171.524 136.909 171.307 136.547C171.091 136.181 170.982 135.748 170.982 135.247C170.982 134.743 171.096 134.31 171.323 133.947C171.551 133.585 171.875 133.306 172.298 133.111C172.724 132.916 173.23 132.818 173.816 132.818H177.183V141H175.989ZM170.535 141L172.857 136.93H174.221L171.899 141H170.535ZM187.033 141.17C186.266 141.17 185.605 140.989 185.051 140.627C184.498 140.265 184.071 139.766 183.773 139.13C183.475 138.495 183.326 137.768 183.326 136.952C183.326 136.121 183.478 135.387 183.784 134.752C184.093 134.113 184.522 133.614 185.073 133.255C185.627 132.893 186.273 132.712 187.012 132.712C187.587 132.712 188.105 132.818 188.567 133.031C189.029 133.244 189.407 133.543 189.702 133.926C189.996 134.31 190.179 134.757 190.25 135.268H188.993C188.897 134.896 188.684 134.565 188.354 134.278C188.027 133.987 187.587 133.841 187.033 133.841C186.543 133.841 186.113 133.969 185.744 134.224C185.378 134.477 185.092 134.833 184.886 135.295C184.684 135.753 184.583 136.291 184.583 136.909C184.583 137.541 184.682 138.092 184.881 138.56C185.083 139.029 185.368 139.393 185.733 139.652C186.103 139.912 186.536 140.041 187.033 140.041C187.36 140.041 187.656 139.984 187.923 139.871C188.189 139.757 188.414 139.594 188.599 139.381C188.784 139.168 188.915 138.912 188.993 138.614H190.25C190.179 139.097 190.004 139.532 189.723 139.919C189.446 140.302 189.078 140.608 188.62 140.835C188.166 141.059 187.637 141.17 187.033 141.17ZM196.562 139.295L199.418 132.818H200.611L197.074 141H196.051L192.578 132.818H193.75L196.562 139.295ZM193.345 132.818V141H192.088V132.818H193.345ZM199.78 141V132.818H201.037V141H199.78ZM206.768 141.17C205.98 141.17 205.3 140.996 204.728 140.648C204.16 140.297 203.722 139.807 203.413 139.178C203.107 138.546 202.955 137.811 202.955 136.973C202.955 136.135 203.107 135.396 203.413 134.757C203.722 134.114 204.151 133.614 204.702 133.255C205.256 132.893 205.902 132.712 206.641 132.712C207.067 132.712 207.488 132.783 207.903 132.925C208.319 133.067 208.697 133.298 209.038 133.617C209.379 133.933 209.65 134.352 209.853 134.874C210.055 135.396 210.156 136.039 210.156 136.803V137.335H203.849V136.249H208.878C208.878 135.787 208.786 135.375 208.601 135.013C208.42 134.651 208.161 134.365 207.823 134.155C207.489 133.946 207.095 133.841 206.641 133.841C206.14 133.841 205.707 133.965 205.341 134.214C204.979 134.459 204.7 134.778 204.505 135.173C204.309 135.567 204.212 135.989 204.212 136.44V137.165C204.212 137.783 204.318 138.306 204.531 138.736C204.748 139.162 205.048 139.487 205.431 139.711C205.815 139.931 206.261 140.041 206.768 140.041C207.099 140.041 207.397 139.995 207.663 139.903C207.933 139.807 208.166 139.665 208.361 139.477C208.556 139.285 208.707 139.047 208.814 138.763L210.028 139.104C209.901 139.516 209.686 139.878 209.384 140.19C209.082 140.499 208.709 140.741 208.265 140.915C207.821 141.085 207.322 141.17 206.768 141.17ZM217.544 136.334V137.506H213.027V136.334H217.544ZM213.326 132.818V141H212.069V132.818H213.326ZM218.503 132.818V141H217.246V132.818H218.503ZM221.886 135.78H224.229C225.188 135.78 225.922 136.023 226.429 136.51C226.937 136.996 227.191 137.612 227.191 138.358C227.191 138.848 227.077 139.294 226.85 139.695C226.623 140.093 226.289 140.411 225.849 140.648C225.408 140.883 224.869 141 224.229 141H220.799V132.818H222.056V139.828H224.229C224.727 139.828 225.135 139.697 225.455 139.434C225.774 139.171 225.934 138.834 225.934 138.422C225.934 137.989 225.774 137.635 225.455 137.362C225.135 137.088 224.727 136.952 224.229 136.952H221.886V135.78ZM228.491 141V132.818H229.748V141H228.491Z" fill="black"/>
<path d="M206.5 9.875C206.156 9.875 205.875 10.1562 205.875 10.5V11.3633L212.613 16.8945C213.422 17.5586 214.582 17.5586 215.391 16.8945L222.125 11.3633V10.5C222.125 10.1562 221.844 9.875 221.5 9.875H206.5ZM205.875 13.7891V20.5C205.875 20.8438 206.156 21.125 206.5 21.125H221.5C221.844 21.125 222.125 20.8438 222.125 20.5V13.7891L216.578 18.3438C215.078 19.5742 212.918 19.5742 211.422 18.3438L205.875 13.7891ZM204 10.5C204 9.12109 205.121 8 206.5 8H221.5C222.879 8 224 9.12109 224 10.5V20.5C224 21.8789 222.879 23 221.5 23H206.5C205.121 23 204 21.8789 204 20.5V10.5Z" fill="black"/>
</svg>
