<svg xmlns="http://www.w3.org/2000/svg" width="35" height="31" fill="none" viewBox="0 0 35 31">
  <path fill="#000" d="M1.64 0C.732 0 0 .74 0 1.66v27.68C0 30.26.731 31 1.64 31h1.094c.91 0 1.641-.74 1.641-1.66V1.66C4.375.74 3.644 0 2.735 0H1.64Zm6.016 0c-.601 0-1.093.498-1.093 1.107v28.786c0 .609.492 1.107 1.093 1.107.602 0 1.094-.498 1.094-1.107V1.107C8.75.498 8.258 0 7.656 0Zm4.922 0c-.91 0-1.64.74-1.64 1.66v27.68c0 .92.73 1.66 1.64 1.66h1.094c.91 0 1.64-.74 1.64-1.66V1.66c0-.92-.73-1.66-1.64-1.66h-1.094Zm6.563 0C18.23 0 17.5.74 17.5 1.66v27.68c0 .92.731 1.66 1.64 1.66h1.094c.91 0 1.641-.74 1.641-1.66V1.66c0-.92-.731-1.66-1.64-1.66H19.14Zm11.484 1.66v27.68c0 .92.731 1.66 1.64 1.66h1.094c.91 0 1.641-.74 1.641-1.66V1.66C35 .74 34.269 0 33.36 0h-1.094c-.91 0-1.641.74-1.641 1.66Zm-4.375-.553v28.786c0 .609.492 1.107 1.094 1.107.601 0 1.093-.498 1.093-1.107V1.107A1.102 1.102 0 0 0 27.345 0c-.602 0-1.094.498-1.094 1.107Z"/>
</svg>
