<svg xmlns="http://www.w3.org/2000/svg" width="20" height="16" fill="none" viewBox="0 0 20 16">
  <path fill="#5B77F6" d="M3.5 0A1.5 1.5 0 0 0 2 1.5V3H.5c-.275 0-.5.225-.5.5s.225.5.5.5h8c.275 0 .5.225.5.5s-.225.5-.5.5h-7c-.275 0-.5.225-.5.5s.225.5.5.5h6c.275 0 .5.225.5.5s-.225.5-.5.5h-7c-.275 0-.5.225-.5.5s.225.5.5.5h6c.275 0 .5.225.5.5s-.225.5-.5.5H2v4a3 3 0 0 0 6 0h4a3 3 0 0 0 6 0h1a.999.999 0 1 0 0-2V7.416A2 2 0 0 0 18.416 6L16 3.584A2 2 0 0 0 14.584 3H13V1.5A1.5 1.5 0 0 0 11.5 0h-8ZM17 7.416V8h-4V5h1.584L17 7.416ZM5 11.5a1.5 1.5 0 1 1 0 3 1.5 1.5 0 0 1 0-3Zm8.5 1.5a1.5 1.5 0 1 1 3 0 1.5 1.5 0 0 1-3 0Z"/>
</svg>
