<svg xmlns="http://www.w3.org/2000/svg" width="33" height="33" fill="none" viewBox="0 0 33 33">
  <path fill="#D95947" d="M16.5 3.094a13.406 13.406 0 1 1 0 26.812 13.406 13.406 0 0 1 0-26.812ZM16.5 33a16.5 16.5 0 1 0 0-33 16.5 16.5 0 0 0 0 33Zm-5.22-21.72a1.54 1.54 0 0 0 0 2.184l3.029 3.03-3.03 3.029a1.54 1.54 0 0 0 0 2.185c.606.6 1.586.606 2.185 0l3.03-3.03 3.029 3.03a1.54 1.54 0 0 0 2.185 0c.6-.606.606-1.586 0-2.185l-3.03-3.03 3.03-3.029a1.546 1.546 0 0 0-2.185-2.185l-3.03 3.03-3.029-3.03a1.54 1.54 0 0 0-2.185 0Z"/>
</svg>
