<svg xmlns="http://www.w3.org/2000/svg" width="42" height="33" fill="none" viewBox="0 0 42 33">
  <path fill="#5B77F6" d="M28.002 33h3.5a2.31 2.31 0 0 0 2.013-1.171l8.167-14.143a2.38 2.38 0 0 0 .007-2.365 2.306 2.306 0 0 0-2.02-1.178H10.501a2.31 2.31 0 0 0-2.013 1.171L3.5 23.947V4.714c0-.648.525-1.178 1.167-1.178h8.568c.306 0 .606.125.824.346l1.933 1.952a8.127 8.127 0 0 0 5.775 2.416h8.568c.642 0 1.167.53 1.167 1.179v2.357h3.5V9.429c0-2.6-2.093-4.715-4.667-4.715h-8.568a4.645 4.645 0 0 1-3.303-1.377l-1.933-1.96A4.645 4.645 0 0 0 13.228 0H4.667C2.093 0 0 2.114 0 4.714v23.572C0 30.886 2.093 33 4.667 33h23.335Z"/>
</svg>
