<svg xmlns="http://www.w3.org/2000/svg" width="35" height="33" fill="none" viewBox="0 0 35 33">
  <path fill="#5B77F6" d="m15.1 2.753-2.425.908a.495.495 0 0 0 0 .929l2.425.909.907 2.43a.494.494 0 0 0 .927 0l.907-2.43 2.425-.91a.495.495 0 0 0 0-.928l-2.425-.908-.907-2.43a.494.494 0 0 0-.927 0l-.907 2.43ZM2.966 25.488a3.105 3.105 0 0 0 0 4.378l2.226 2.23a3.09 3.09 0 0 0 4.369 0L34.093 7.51a3.105 3.105 0 0 0 0-4.377L31.867.909a3.09 3.09 0 0 0-4.369 0L2.966 25.489ZM31.178 5.325l-6.755 6.768-1.5-1.502 6.756-6.768 1.5 1.502ZM.483 7.555A.746.746 0 0 0 0 8.251c0 .31.193.587.483.696l3.635 1.367 1.364 3.642c.109.29.386.484.694.484a.745.745 0 0 0 .695-.484l1.364-3.642 3.635-1.367a.746.746 0 0 0 .483-.696.746.746 0 0 0-.483-.696L8.235 6.188 6.871 2.546a.745.745 0 0 0-.695-.483.745.745 0 0 0-.694.483L4.118 6.188.483 7.555ZM23.13 24.057a.746.746 0 0 0-.483.697c0 .309.193.586.483.696l3.635 1.366 1.364 3.643c.11.29.386.483.694.483a.745.745 0 0 0 .695-.483l1.364-3.643 3.635-1.366a.746.746 0 0 0 .483-.696.746.746 0 0 0-.483-.697l-3.635-1.366-1.364-3.642a.745.745 0 0 0-.695-.484.744.744 0 0 0-.694.484l-1.364 3.642-3.635 1.366Z"/>
</svg>
