<svg xmlns="http://www.w3.org/2000/svg" width="34" height="34" fill="none" viewBox="0 0 34 34">
  <path fill="#5B77F6" d="M24.948 1.31a1.594 1.594 0 0 0-2.47-1.023L17 4.058 11.522.28a1.594 1.594 0 0 0-2.47 1.023L7.85 7.843 1.31 9.052a1.594 1.594 0 0 0-1.023 2.47L4.058 17 .28 22.478a1.6 1.6 0 0 0-.16 1.514c.207.498.652.863 1.183.956l6.54 1.202 1.202 6.54a1.594 1.594 0 0 0 2.47 1.023L17 29.942l5.478 3.778a1.594 1.594 0 0 0 2.47-1.023l1.202-6.54 6.54-1.202a1.594 1.594 0 0 0 1.023-2.47L29.942 17l3.778-5.478a1.594 1.594 0 0 0-1.023-2.47l-6.54-1.202-1.209-6.54Zm-7.045 5.995 4.356-3 .956 5.198a1.6 1.6 0 0 0 1.282 1.282l5.199.956-3.001 4.356a1.578 1.578 0 0 0 0 1.806l3 4.356-5.198.956a1.6 1.6 0 0 0-1.282 1.282l-.956 5.199-4.356-3.001a1.578 1.578 0 0 0-1.806 0l-4.356 3-.956-5.198a1.599 1.599 0 0 0-1.282-1.282l-5.199-.956 3.001-4.356a1.579 1.579 0 0 0 0-1.806l-3-4.356 5.198-.956a1.6 1.6 0 0 0 1.282-1.282l.956-5.199 4.356 3.001a1.579 1.579 0 0 0 1.806 0ZM17 24.437a7.437 7.437 0 1 0 0-14.874 7.437 7.437 0 0 0 0 14.874ZM12.75 17a4.25 4.25 0 1 1 8.5 0 4.25 4.25 0 0 1-8.5 0Z"/>
</svg>
