<svg xmlns="http://www.w3.org/2000/svg" width="31" height="27" fill="none" viewBox="0 0 31 27">
  <path fill="#000" d="m13.193 4.454 7.435 7.4a2.33 2.33 0 0 1 .684 1.646 2.33 2.33 0 0 1-.684 1.645l-7.435 7.401a2.053 2.053 0 0 1-1.453.597A2.05 2.05 0 0 1 9.687 21.1v-3.743h-7.75A1.93 1.93 0 0 1 0 15.43v-3.86c0-1.066.866-1.928 1.938-1.928h7.75V5.9a2.05 2.05 0 0 1 2.052-2.043c.545 0 1.066.217 1.453.597Zm8.12 18.689h3.875a1.931 1.931 0 0 0 1.937-1.929V5.786a1.931 1.931 0 0 0-1.938-1.929h-3.875a1.931 1.931 0 0 1-1.937-1.928C19.375.862 20.241 0 21.313 0h3.875C28.396 0 31 2.592 31 5.786v15.428C31 24.41 28.396 27 25.187 27h-3.875a1.93 1.93 0 0 1-1.937-1.929 1.93 1.93 0 0 1 1.938-1.928Z"/>
</svg>
