<svg xmlns="http://www.w3.org/2000/svg" width="33" height="33" fill="none" viewBox="0 0 33 33">
  <path fill="#5B77F6" d="M11.786 3.536A3.537 3.537 0 0 1 15.32 0h2.358a3.537 3.537 0 0 1 3.535 3.536v25.928A3.537 3.537 0 0 1 17.68 33h-2.36a3.537 3.537 0 0 1-3.535-3.536V3.536ZM0 17.679a3.537 3.537 0 0 1 3.536-3.536h2.357a3.537 3.537 0 0 1 3.536 3.536v11.785A3.537 3.537 0 0 1 5.893 33H3.536A3.537 3.537 0 0 1 0 29.464V17.68ZM27.107 4.714h2.357A3.537 3.537 0 0 1 33 8.25v21.214A3.537 3.537 0 0 1 29.464 33h-2.357a3.537 3.537 0 0 1-3.536-3.536V8.25a3.537 3.537 0 0 1 3.536-3.536Z"/>
</svg>
